<?xml version="1.0" encoding="UTF-8" standalone="no"?>
<!DOCTYPE svg PUBLIC "-//W3C//DTD SVG 1.1//EN" "http://www.w3.org/Graphics/SVG/1.1/DTD/svg11.dtd">
<svg width="100%" height="100%" viewBox="0 0 1390 320" version="1.1" xmlns="http://www.w3.org/2000/svg" xmlns:xlink="http://www.w3.org/1999/xlink" xml:space="preserve" xmlns:serif="http://www.serif.com/" style="fill-rule:evenodd;clip-rule:evenodd;stroke-linejoin:round;stroke-miterlimit:2;">
    <g transform="matrix(1,0,0,1,-2110,-1540)">
        <g transform="matrix(0.985816,0,0,0.941176,158.085,429.412)">
            <g id="Logo-1" serif:id="Logo 1">
                <path d="M3390,1180L3390,1520L1980,1520L1980,1180L3390,1180ZM2363.76,1296.98C2363.76,1276.49 2353.42,1263.14 2329.7,1263.14L2324.66,1263.14C2300.94,1263.14 2290.59,1276.03 2290.59,1296.98L2290.59,1404.49C2290.59,1425.44 2302.7,1437.64 2324.66,1437.64L2329.95,1437.64C2350.64,1437.64 2363.76,1425.9 2363.76,1404.49L2363.76,1296.98ZM2330.96,1407.02C2330.96,1410.01 2329.7,1411.62 2327.18,1411.62C2324.66,1411.62 2323.65,1410.01 2323.65,1407.02L2323.65,1293.76C2323.65,1290.31 2324.4,1288.69 2327.18,1288.69C2329.95,1288.69 2330.96,1290.54 2330.96,1293.76L2330.96,1407.02ZM2383.45,1436.03L2429.62,1436.03C2443.5,1436.03 2453.84,1427.97 2453.84,1410.01L2453.84,1289.38C2453.84,1271.2 2442.99,1264.75 2429.12,1264.75L2383.45,1264.75L2383.45,1436.03ZM2414.73,1288.23L2417.76,1288.23C2420.79,1288.23 2421.55,1290.08 2421.55,1293.53L2421.55,1406.1C2421.55,1410.01 2420.79,1411.86 2417.76,1411.86L2414.73,1411.86L2414.73,1288.23ZM2270.91,1296.98C2270.91,1276.49 2260.57,1263.14 2236.85,1263.14L2231.8,1263.14C2208.08,1263.14 2197.74,1276.03 2197.74,1296.98L2197.74,1404.49C2197.74,1425.44 2209.85,1437.64 2231.8,1437.64L2237.1,1437.64C2257.79,1437.64 2270.91,1425.9 2270.91,1404.49L2270.91,1296.98ZM2238.11,1407.02C2238.11,1410.01 2236.85,1411.62 2234.32,1411.62C2231.8,1411.62 2230.79,1410.01 2230.79,1407.02L2230.79,1293.76C2230.79,1290.31 2231.55,1288.69 2234.32,1288.69C2237.1,1288.69 2238.11,1290.54 2238.11,1293.76L2238.11,1407.02ZM2452.68,1506.83L2461.94,1506.83L2461.94,1486.42L2477.8,1486.42L2477.8,1506.83L2487.07,1506.83L2487.07,1457.24L2477.8,1457.24L2477.8,1477.5L2461.94,1477.5L2461.94,1457.24L2452.68,1457.24L2452.68,1506.83ZM2531.08,1507.82C2536.7,1507.82 2541.12,1506.08 2544.35,1502.61C2547.58,1499.14 2549.19,1494.12 2549.19,1487.56L2549.19,1476.51C2549.19,1470.13 2547.58,1465.16 2544.35,1461.6C2541.12,1458.03 2536.7,1456.25 2531.08,1456.25C2525.47,1456.25 2521.05,1458.03 2517.82,1461.6C2514.59,1465.16 2512.97,1470.13 2512.97,1476.51L2512.97,1487.56C2512.97,1494.12 2514.59,1499.14 2517.82,1502.61C2521.05,1506.08 2525.47,1507.82 2531.08,1507.82ZM2531.08,1499.32C2527.71,1499.32 2525.4,1498.28 2524.13,1496.2C2522.87,1494.12 2522.24,1491.43 2522.24,1488.12L2522.24,1475.94C2522.24,1473.86 2522.53,1471.98 2523.12,1470.28C2523.7,1468.58 2524.65,1467.23 2525.96,1466.24C2527.27,1465.25 2528.98,1464.75 2531.08,1464.75C2533.19,1464.75 2534.88,1465.25 2536.17,1466.24C2537.46,1467.23 2538.41,1468.58 2539.01,1470.28C2539.62,1471.98 2539.93,1473.86 2539.93,1475.94L2539.93,1488.12C2539.93,1491.43 2539.3,1494.12 2538.03,1496.2C2536.77,1498.28 2534.45,1499.32 2531.08,1499.32ZM2131.63,1437.64C2142.23,1437.64 2149.04,1431.19 2153.33,1425.21C2154.34,1427.28 2156.11,1433.5 2156.61,1436.03L2178.06,1436.03L2178.06,1335.2L2141.22,1335.2L2141.22,1357.53L2147.78,1357.53L2147.78,1408.63C2147.78,1412.09 2146.01,1413.93 2143.24,1413.93C2140.21,1413.93 2138.7,1412.09 2138.7,1408.63L2138.7,1291.69C2138.7,1288.92 2139.45,1287.31 2142.23,1287.31C2145.26,1287.31 2146.01,1288.92 2146.01,1291.69L2146.01,1328.98L2176.8,1328.98L2176.8,1290.54C2176.8,1276.72 2169.73,1263.14 2143.99,1263.14L2139.7,1263.14C2114.47,1263.14 2105.89,1276.72 2105.89,1292.84L2105.89,1409.32C2105.89,1424.52 2113.97,1437.64 2130.87,1437.64L2131.63,1437.64ZM1990.58,1264.75L1990.58,1436.03L2017.33,1436.03L2017.08,1333.35L2031.96,1436.03L2061.49,1436.03L2061.49,1264.75L2034.99,1264.75L2035.24,1357.53L2022.88,1264.75L1990.58,1264.75ZM2010.38,1507.82C2013.56,1507.82 2015.95,1507.19 2017.54,1505.94C2019.13,1504.69 2020.21,1503.14 2020.77,1501.3L2022.03,1501.3L2022.03,1506.83L2030.46,1506.83L2030.46,1481.75L2009.4,1481.75L2009.4,1490.67L2021.19,1490.67C2021.19,1493.13 2020.48,1495.11 2019.05,1496.62C2017.62,1498.14 2015.53,1498.89 2012.77,1498.89C2006.59,1498.89 2003.5,1495.07 2003.5,1487.42L2003.5,1476.93C2003.5,1472.59 2004.36,1469.54 2006.07,1467.8C2007.77,1466.05 2009.91,1465.17 2012.49,1465.17C2015.25,1465.17 2017.39,1465.94 2018.91,1467.48C2020.43,1469.01 2021.19,1471.27 2021.19,1474.24L2021.19,1475.09L2030.46,1475.09L2030.46,1474.24C2030.46,1470.89 2029.76,1467.86 2028.35,1465.14C2026.95,1462.42 2024.91,1460.26 2022.25,1458.66C2019.58,1457.05 2016.37,1456.25 2012.63,1456.25C2009.03,1456.25 2005.84,1457.02 2003.08,1458.55C2000.32,1460.09 1998.16,1462.34 1996.59,1465.32C1995.02,1468.29 1994.24,1471.93 1994.24,1476.23L1994.24,1487.84C1994.24,1492.23 1994.96,1495.92 1996.41,1498.89C1997.86,1501.87 1999.81,1504.1 2002.24,1505.59C2004.67,1507.07 2007.39,1507.82 2010.38,1507.82ZM2059.59,1506.83L2068.85,1506.83L2068.85,1488.12L2079.52,1488.12C2080.88,1488.12 2081.85,1488.48 2082.44,1489.19C2083.02,1489.9 2083.31,1490.82 2083.31,1491.95L2083.31,1506.83L2092.58,1506.83L2092.58,1489.68C2092.58,1488.03 2092.1,1486.66 2091.14,1485.58C2090.18,1484.49 2088.88,1483.85 2087.24,1483.66L2087.24,1482.39C2089.44,1481.44 2091.09,1480.09 2092.19,1478.32C2093.29,1476.54 2093.84,1474.64 2093.84,1472.61L2093.84,1470.91C2093.84,1468.36 2093.26,1466.06 2092.09,1464.01C2090.92,1461.95 2089.19,1460.31 2086.89,1459.08C2084.6,1457.86 2081.77,1457.24 2078.4,1457.24L2059.59,1457.24L2059.59,1506.83ZM2068.85,1479.2L2068.85,1466.17L2077.7,1466.17C2079.95,1466.17 2081.65,1466.77 2082.82,1467.97C2083.99,1469.18 2084.58,1470.61 2084.58,1472.26L2084.58,1473.11C2084.58,1475 2083.99,1476.49 2082.82,1477.57C2081.65,1478.66 2079.95,1479.2 2077.7,1479.2L2068.85,1479.2ZM2118.83,1506.83L2128.52,1506.83L2130.91,1496.2L2147.61,1496.2L2150,1506.83L2159.68,1506.83L2147.96,1457.24L2130.55,1457.24L2118.83,1506.83ZM2132.87,1487.28L2138.63,1461.92L2139.89,1461.92L2145.58,1487.28L2132.87,1487.28ZM2248.69,1506.83L2257.96,1506.83L2257.96,1486.42L2273.82,1486.42L2273.82,1506.83L2283.09,1506.83L2283.09,1457.24L2273.82,1457.24L2273.82,1477.5L2257.96,1477.5L2257.96,1457.24L2248.69,1457.24L2248.69,1506.83ZM2324.57,1506.83L2333.84,1506.83L2333.84,1489.4L2335.94,1489.4L2350.05,1457.24L2339.94,1457.24L2329.84,1480.9L2328.57,1480.9L2318.46,1457.24L2308.36,1457.24L2322.47,1489.4L2324.57,1489.4L2324.57,1506.83ZM2390.13,1506.83L2399.4,1506.83L2399.4,1488.12L2409.37,1488.12C2412.74,1488.12 2415.53,1487.4 2417.75,1485.96C2419.98,1484.52 2421.64,1482.67 2422.74,1480.4C2423.84,1478.14 2424.39,1475.78 2424.39,1473.32L2424.39,1471.62C2424.39,1469.21 2423.84,1466.91 2422.74,1464.71C2421.64,1462.52 2419.98,1460.72 2417.75,1459.33C2415.53,1457.94 2412.74,1457.24 2409.37,1457.24L2390.13,1457.24L2390.13,1506.83ZM2399.4,1479.2L2399.4,1466.17L2408.45,1466.17C2410.51,1466.17 2412.14,1466.73 2413.33,1467.87C2414.53,1469 2415.12,1470.46 2415.12,1472.26L2415.12,1473.11C2415.12,1474.9 2414.53,1476.37 2413.33,1477.5C2412.14,1478.63 2410.51,1479.2 2408.45,1479.2L2399.4,1479.2ZM2186.15,1506.83L2195.41,1506.83L2195.41,1488.12L2205.38,1488.12C2208.75,1488.12 2211.55,1487.4 2213.77,1485.96C2215.99,1484.52 2217.65,1482.67 2218.75,1480.4C2219.85,1478.14 2220.4,1475.78 2220.4,1473.32L2220.4,1471.62C2220.4,1469.21 2219.85,1466.91 2218.75,1464.71C2217.65,1462.52 2215.99,1460.72 2213.77,1459.33C2211.55,1457.94 2208.75,1457.24 2205.38,1457.24L2186.15,1457.24L2186.15,1506.83ZM2195.41,1479.2L2195.41,1466.17L2204.47,1466.17C2206.53,1466.17 2208.15,1466.73 2209.35,1467.87C2210.54,1469 2211.14,1470.46 2211.14,1472.26L2211.14,1473.11C2211.14,1474.9 2210.54,1476.37 2209.35,1477.5C2208.15,1478.63 2206.53,1479.2 2204.47,1479.2L2195.41,1479.2ZM3379.86,1296.98C3379.86,1276.49 3369.51,1263.14 3345.79,1263.14L3340.75,1263.14C3317.03,1263.14 3306.68,1276.03 3306.68,1296.98L3306.68,1404.49C3306.68,1425.44 3318.8,1437.64 3340.75,1437.64L3346.05,1437.64C3366.74,1437.64 3379.86,1425.9 3379.86,1404.49L3379.86,1296.98ZM3347.06,1407.02C3347.06,1410.01 3345.79,1411.62 3343.27,1411.62C3340.75,1411.62 3339.74,1410.01 3339.74,1407.02L3339.74,1293.76C3339.74,1290.31 3340.49,1288.69 3343.27,1288.69C3346.05,1288.69 3347.06,1290.54 3347.06,1293.76L3347.06,1407.02ZM3087.92,1436.03L3134.1,1436.03C3147.97,1436.03 3158.32,1427.97 3158.32,1410.01L3158.32,1289.38C3158.32,1271.2 3147.47,1264.75 3133.59,1264.75L3087.92,1264.75L3087.92,1436.03ZM3119.21,1288.23L3122.24,1288.23C3125.26,1288.23 3126.02,1290.08 3126.02,1293.53L3126.02,1406.1C3126.02,1410.01 3125.26,1411.86 3122.24,1411.86L3119.21,1411.86L3119.21,1288.23ZM3219.89,1362.13L3219.89,1412.32C3219.89,1426.36 3227.2,1437.64 3247.64,1437.64L3256.22,1437.64C3277.92,1437.64 3287,1426.36 3287,1411.39L3287,1264.75L3254.45,1264.75L3254.45,1409.78C3254.45,1411.86 3253.7,1412.78 3251.93,1412.78L3251.68,1412.78C3249.91,1412.78 3248.9,1411.86 3248.9,1409.78L3248.9,1362.13L3219.89,1362.13ZM2587.66,1506.83L2596.92,1506.83L2596.92,1466.17L2609.98,1466.17L2609.98,1457.24L2574.6,1457.24L2574.6,1466.17L2587.66,1466.17L2587.66,1506.83ZM2653.5,1507.82C2659.12,1507.82 2663.54,1506.08 2666.77,1502.61C2670,1499.14 2671.61,1494.12 2671.61,1487.56L2671.61,1476.51C2671.61,1470.13 2670,1465.16 2666.77,1461.6C2663.54,1458.03 2659.12,1456.25 2653.5,1456.25C2647.89,1456.25 2643.46,1458.03 2640.23,1461.6C2637.01,1465.16 2635.39,1470.13 2635.39,1476.51L2635.39,1487.56C2635.39,1494.12 2637.01,1499.14 2640.23,1502.61C2643.46,1506.08 2647.89,1507.82 2653.5,1507.82ZM2653.5,1499.32C2650.13,1499.32 2647.82,1498.28 2646.55,1496.2C2645.29,1494.12 2644.66,1491.43 2644.66,1488.12L2644.66,1475.94C2644.66,1473.86 2644.95,1471.98 2645.53,1470.28C2646.12,1468.58 2647.07,1467.23 2648.38,1466.24C2649.69,1465.25 2651.39,1464.75 2653.5,1464.75C2655.61,1464.75 2657.3,1465.25 2658.59,1466.24C2659.88,1467.23 2660.82,1468.58 2661.43,1470.28C2662.04,1471.98 2662.35,1473.86 2662.35,1475.94L2662.35,1488.12C2662.35,1491.43 2661.71,1494.12 2660.45,1496.2C2659.19,1498.28 2656.87,1499.32 2653.5,1499.32ZM2714.57,1507.82C2717.75,1507.82 2720.14,1507.19 2721.73,1505.94C2723.32,1504.69 2724.4,1503.14 2724.96,1501.3L2726.22,1501.3L2726.22,1506.83L2734.64,1506.83L2734.64,1481.75L2713.59,1481.75L2713.59,1490.67L2725.38,1490.67C2725.38,1493.13 2724.67,1495.11 2723.24,1496.62C2721.81,1498.14 2719.72,1498.89 2716.96,1498.89C2710.78,1498.89 2707.69,1495.07 2707.69,1487.42L2707.69,1476.93C2707.69,1472.59 2708.55,1469.54 2710.25,1467.8C2711.96,1466.05 2714.1,1465.17 2716.68,1465.17C2719.44,1465.17 2721.58,1465.94 2723.1,1467.48C2724.62,1469.01 2725.38,1471.27 2725.38,1474.24L2725.38,1475.09L2734.64,1475.09L2734.64,1474.24C2734.64,1470.89 2733.94,1467.86 2732.54,1465.14C2731.14,1462.42 2729.1,1460.26 2726.43,1458.66C2723.76,1457.05 2720.56,1456.25 2716.82,1456.25C2713.21,1456.25 2710.03,1457.02 2707.27,1458.55C2704.51,1460.09 2702.34,1462.34 2700.78,1465.32C2699.21,1468.29 2698.43,1471.93 2698.43,1476.23L2698.43,1487.84C2698.43,1492.23 2699.15,1495.92 2700.6,1498.89C2702.05,1501.87 2703.99,1504.1 2706.43,1505.59C2708.86,1507.07 2711.58,1507.82 2714.57,1507.82ZM2763.78,1506.83L2773.04,1506.83L2773.04,1488.12L2783.71,1488.12C2785.07,1488.12 2786.04,1488.48 2786.62,1489.19C2787.21,1489.9 2787.5,1490.82 2787.5,1491.95L2787.5,1506.83L2796.77,1506.83L2796.77,1489.68C2796.77,1488.03 2796.29,1486.66 2795.33,1485.58C2794.37,1484.49 2793.07,1483.85 2791.43,1483.66L2791.43,1482.39C2793.63,1481.44 2795.28,1480.09 2796.38,1478.32C2797.48,1476.54 2798.03,1474.64 2798.03,1472.61L2798.03,1470.91C2798.03,1468.36 2797.45,1466.06 2796.28,1464.01C2795.11,1461.95 2793.37,1460.31 2791.08,1459.08C2788.79,1457.86 2785.96,1457.24 2782.59,1457.24L2763.78,1457.24L2763.78,1506.83ZM2773.04,1479.2L2773.04,1466.17L2781.89,1466.17C2784.13,1466.17 2785.84,1466.77 2787.01,1467.97C2788.18,1469.18 2788.76,1470.61 2788.76,1472.26L2788.76,1473.11C2788.76,1475 2788.18,1476.49 2787.01,1477.57C2785.84,1478.66 2784.13,1479.2 2781.89,1479.2L2773.04,1479.2ZM2823.02,1506.83L2832.71,1506.83L2835.09,1496.2L2851.8,1496.2L2854.19,1506.83L2863.87,1506.83L2852.15,1457.24L2834.74,1457.24L2823.02,1506.83ZM2837.06,1487.28L2842.81,1461.92L2844.08,1461.92L2849.76,1487.28L2837.06,1487.28ZM2890.34,1506.83L2899.6,1506.83L2899.6,1488.12L2909.57,1488.12C2912.94,1488.12 2915.73,1487.4 2917.96,1485.96C2920.18,1484.52 2921.84,1482.67 2922.94,1480.4C2924.04,1478.14 2924.59,1475.78 2924.59,1473.32L2924.59,1471.62C2924.59,1469.21 2924.04,1466.91 2922.94,1464.71C2921.84,1462.52 2920.18,1460.72 2917.96,1459.33C2915.73,1457.94 2912.94,1457.24 2909.57,1457.24L2890.34,1457.24L2890.34,1506.83ZM2899.6,1479.2L2899.6,1466.17L2908.66,1466.17C2910.72,1466.17 2912.34,1466.73 2913.53,1467.87C2914.73,1469 2915.33,1470.46 2915.33,1472.26L2915.33,1473.11C2915.33,1474.9 2914.73,1476.37 2913.53,1477.5C2912.34,1478.63 2910.72,1479.2 2908.66,1479.2L2899.6,1479.2ZM2952.88,1506.83L2962.14,1506.83L2962.14,1486.42L2978.01,1486.42L2978.01,1506.83L2987.27,1506.83L2987.27,1457.24L2978.01,1457.24L2978.01,1477.5L2962.14,1477.5L2962.14,1457.24L2952.88,1457.24L2952.88,1506.83ZM3028.76,1506.83L3038.02,1506.83L3038.02,1489.4L3040.13,1489.4L3054.24,1457.24L3044.13,1457.24L3034.02,1480.9L3032.76,1480.9L3022.65,1457.24L3012.54,1457.24L3026.65,1489.4L3028.76,1489.4L3028.76,1506.83ZM3094.32,1506.83L3103.59,1506.83L3103.59,1488.12L3113.55,1488.12C3116.92,1488.12 3119.72,1487.4 3121.94,1485.96C3124.16,1484.52 3125.83,1482.67 3126.93,1480.4C3128.03,1478.14 3128.58,1475.78 3128.58,1473.32L3128.58,1471.62C3128.58,1469.21 3128.03,1466.91 3126.93,1464.71C3125.83,1462.52 3124.16,1460.72 3121.94,1459.33C3119.72,1457.94 3116.92,1457.24 3113.55,1457.24L3094.32,1457.24L3094.32,1506.83ZM3103.59,1479.2L3103.59,1466.17L3112.64,1466.17C3114.7,1466.17 3116.33,1466.73 3117.52,1467.87C3118.71,1469 3119.31,1470.46 3119.31,1472.26L3119.31,1473.11C3119.31,1474.9 3118.71,1476.37 3117.52,1477.5C3116.33,1478.63 3114.7,1479.2 3112.64,1479.2L3103.59,1479.2ZM3156.86,1506.83L3166.13,1506.83L3166.13,1486.42L3181.99,1486.42L3181.99,1506.83L3191.26,1506.83L3191.26,1457.24L3181.99,1457.24L3181.99,1477.5L3166.13,1477.5L3166.13,1457.24L3156.86,1457.24L3156.86,1506.83ZM3235.27,1507.82C3240.89,1507.82 3245.31,1506.08 3248.54,1502.61C3251.77,1499.14 3253.38,1494.12 3253.38,1487.56L3253.38,1476.51C3253.38,1470.13 3251.77,1465.16 3248.54,1461.6C3245.31,1458.03 3240.89,1456.25 3235.27,1456.25C3229.65,1456.25 3225.23,1458.03 3222,1461.6C3218.77,1465.16 3217.16,1470.13 3217.16,1476.51L3217.16,1487.56C3217.16,1494.12 3218.77,1499.14 3222,1502.61C3225.23,1506.08 3229.65,1507.82 3235.27,1507.82ZM3235.27,1499.32C3231.9,1499.32 3229.58,1498.28 3228.32,1496.2C3227.06,1494.12 3226.43,1491.43 3226.43,1488.12L3226.43,1475.94C3226.43,1473.86 3226.72,1471.98 3227.3,1470.28C3227.89,1468.58 3228.84,1467.23 3230.15,1466.24C3231.46,1465.25 3233.16,1464.75 3235.27,1464.75C3237.38,1464.75 3239.07,1465.25 3240.36,1466.24C3241.65,1467.23 3242.59,1468.58 3243.2,1470.28C3243.81,1471.98 3244.11,1473.86 3244.11,1475.94L3244.11,1488.12C3244.11,1491.43 3243.48,1494.12 3242.22,1496.2C3240.96,1498.28 3238.64,1499.32 3235.27,1499.32ZM3291.85,1506.83L3301.11,1506.83L3301.11,1466.17L3314.17,1466.17L3314.17,1457.24L3278.79,1457.24L3278.79,1466.17L3291.85,1466.17L3291.85,1506.83ZM3357.69,1507.82C3363.3,1507.82 3367.73,1506.08 3370.95,1502.61C3374.18,1499.14 3375.8,1494.12 3375.8,1487.56L3375.8,1476.51C3375.8,1470.13 3374.18,1465.16 3370.95,1461.6C3367.73,1458.03 3363.3,1456.25 3357.69,1456.25C3352.07,1456.25 3347.65,1458.03 3344.42,1461.6C3341.19,1465.16 3339.58,1470.13 3339.58,1476.51L3339.58,1487.56C3339.58,1494.12 3341.19,1499.14 3344.42,1502.61C3347.65,1506.08 3352.07,1507.82 3357.69,1507.82ZM3357.69,1499.32C3354.32,1499.32 3352,1498.28 3350.74,1496.2C3349.48,1494.12 3348.84,1491.43 3348.84,1488.12L3348.84,1475.94C3348.84,1473.86 3349.14,1471.98 3349.72,1470.28C3350.31,1468.58 3351.25,1467.23 3352.56,1466.24C3353.88,1465.25 3355.58,1464.75 3357.69,1464.75C3359.79,1464.75 3361.49,1465.25 3362.78,1466.24C3364.06,1467.23 3365.01,1468.58 3365.62,1470.28C3366.23,1471.98 3366.53,1473.86 3366.53,1475.94L3366.53,1488.12C3366.53,1491.43 3365.9,1494.12 3364.64,1496.2C3363.37,1498.28 3361.06,1499.32 3357.69,1499.32ZM1994.24,1243.75L2003.51,1243.75L2003.51,1223.35L2019.39,1223.35L2019.39,1243.75L2028.67,1243.75L2028.67,1194.17L2019.39,1194.17L2019.39,1214.42L2003.51,1214.42L2003.51,1194.17L1994.24,1194.17L1994.24,1243.75ZM2070.2,1243.75L2079.47,1243.75L2079.47,1226.33L2081.58,1226.33L2095.71,1194.17L2085.59,1194.17L2075.47,1217.83L2074.2,1217.83L2064.09,1194.17L2053.97,1194.17L2068.09,1226.33L2070.2,1226.33L2070.2,1243.75ZM2135.83,1243.75L2145.11,1243.75L2145.11,1225.05L2155.08,1225.05C2158.46,1225.05 2161.26,1224.33 2163.48,1222.89C2165.71,1221.45 2167.37,1219.6 2168.47,1217.33C2169.57,1215.06 2170.12,1212.7 2170.12,1210.25L2170.12,1208.55C2170.12,1206.14 2169.57,1203.84 2168.47,1201.64C2167.37,1199.44 2165.71,1197.65 2163.48,1196.26C2161.26,1194.86 2158.46,1194.17 2155.08,1194.17L2135.83,1194.17L2135.83,1243.75ZM2145.11,1216.12L2145.11,1203.09L2154.17,1203.09C2156.23,1203.09 2157.86,1203.66 2159.05,1204.79C2160.25,1205.92 2160.85,1207.39 2160.85,1209.18L2160.85,1210.03C2160.85,1211.83 2160.25,1213.29 2159.05,1214.42C2157.86,1215.56 2156.23,1216.12 2154.17,1216.12L2145.11,1216.12ZM2198.44,1243.75L2207.72,1243.75L2207.72,1223.35L2223.6,1223.35L2223.6,1243.75L2232.87,1243.75L2232.87,1194.17L2223.6,1194.17L2223.6,1214.42L2207.72,1214.42L2207.72,1194.17L2198.44,1194.17L2198.44,1243.75ZM2276.93,1244.74C2282.55,1244.74 2286.98,1243.01 2290.21,1239.54C2293.44,1236.07 2295.06,1231.05 2295.06,1224.48L2295.06,1213.43C2295.06,1207.06 2293.44,1202.09 2290.21,1198.52C2286.98,1194.96 2282.55,1193.17 2276.93,1193.17C2271.31,1193.17 2266.88,1194.96 2263.65,1198.52C2260.42,1202.09 2258.8,1207.06 2258.8,1213.43L2258.8,1224.48C2258.8,1231.05 2260.42,1236.07 2263.65,1239.54C2266.88,1243.01 2271.31,1244.74 2276.93,1244.74ZM2276.93,1236.24C2273.56,1236.24 2271.24,1235.2 2269.97,1233.12C2268.71,1231.05 2268.08,1228.36 2268.08,1225.05L2268.08,1212.87C2268.08,1210.79 2268.37,1208.9 2268.95,1207.2C2269.54,1205.5 2270.49,1204.15 2271.8,1203.16C2273.11,1202.17 2274.82,1201.67 2276.93,1201.67C2279.04,1201.67 2280.74,1202.17 2282.03,1203.16C2283.31,1204.15 2284.26,1205.5 2284.87,1207.2C2285.48,1208.9 2285.78,1210.79 2285.78,1212.87L2285.78,1225.05C2285.78,1228.36 2285.15,1231.05 2283.89,1233.12C2282.62,1235.2 2280.3,1236.24 2276.93,1236.24ZM2333.57,1243.75L2342.84,1243.75L2342.84,1203.09L2355.91,1203.09L2355.91,1194.17L2320.5,1194.17L2320.5,1203.09L2333.57,1203.09L2333.57,1243.75ZM2399.48,1244.74C2405.1,1244.74 2409.53,1243.01 2412.76,1239.54C2415.99,1236.07 2417.61,1231.05 2417.61,1224.48L2417.61,1213.43C2417.61,1207.06 2415.99,1202.09 2412.76,1198.52C2409.53,1194.96 2405.1,1193.17 2399.48,1193.17C2393.86,1193.17 2389.43,1194.96 2386.2,1198.52C2382.97,1202.09 2381.35,1207.06 2381.35,1213.43L2381.35,1224.48C2381.35,1231.05 2382.97,1236.07 2386.2,1239.54C2389.43,1243.01 2393.86,1244.74 2399.48,1244.74ZM2399.48,1236.24C2396.11,1236.24 2393.79,1235.2 2392.52,1233.12C2391.26,1231.05 2390.63,1228.36 2390.63,1225.05L2390.63,1212.87C2390.63,1210.79 2390.92,1208.9 2391.5,1207.2C2392.09,1205.5 2393.04,1204.15 2394.35,1203.16C2395.66,1202.17 2397.37,1201.67 2399.48,1201.67C2401.59,1201.67 2403.29,1202.17 2404.57,1203.16C2405.86,1204.15 2406.81,1205.5 2407.42,1207.2C2408.03,1208.9 2408.33,1210.79 2408.33,1212.87L2408.33,1225.05C2408.33,1228.36 2407.7,1231.05 2406.44,1233.12C2405.17,1235.2 2402.85,1236.24 2399.48,1236.24ZM2460.61,1244.74C2463.8,1244.74 2466.19,1244.12 2467.78,1242.87C2469.37,1241.61 2470.45,1240.07 2471.01,1238.23L2472.28,1238.23L2472.28,1243.75L2480.71,1243.75L2480.71,1218.67L2459.63,1218.67L2459.63,1227.6L2471.43,1227.6C2471.43,1230.06 2470.72,1232.04 2469.29,1233.55C2467.86,1235.06 2465.77,1235.82 2463,1235.82C2456.82,1235.82 2453.73,1231.99 2453.73,1224.34L2453.73,1213.86C2453.73,1209.51 2454.58,1206.47 2456.29,1204.72C2458,1202.97 2460.14,1202.1 2462.72,1202.1C2465.49,1202.1 2467.63,1202.87 2469.15,1204.4C2470.67,1205.94 2471.43,1208.19 2471.43,1211.17L2471.43,1212.02L2480.71,1212.02L2480.71,1211.17C2480.71,1207.81 2480.01,1204.78 2478.6,1202.07C2477.2,1199.35 2475.16,1197.19 2472.49,1195.58C2469.82,1193.98 2466.61,1193.17 2462.86,1193.17C2459.26,1193.17 2456.07,1193.94 2453.31,1195.48C2450.54,1197.01 2448.38,1199.27 2446.81,1202.24C2445.24,1205.22 2444.45,1208.85 2444.45,1213.15L2444.45,1224.77C2444.45,1229.16 2445.18,1232.84 2446.63,1235.82C2448.08,1238.79 2450.03,1241.02 2452.46,1242.51C2454.9,1244 2457.62,1244.74 2460.61,1244.74ZM2509.87,1243.75L2519.15,1243.75L2519.15,1225.05L2529.83,1225.05C2531.19,1225.05 2532.16,1225.4 2532.74,1226.11C2533.33,1226.82 2533.62,1227.74 2533.62,1228.88L2533.62,1243.75L2542.9,1243.75L2542.9,1226.61C2542.9,1224.96 2542.42,1223.59 2541.46,1222.5C2540.5,1221.41 2539.2,1220.78 2537.56,1220.59L2537.56,1219.31C2539.76,1218.37 2541.41,1217.01 2542.51,1215.24C2543.61,1213.47 2544.16,1211.57 2544.16,1209.54L2544.16,1207.84C2544.16,1205.29 2543.58,1202.99 2542.41,1200.93C2541.24,1198.88 2539.5,1197.24 2537.21,1196.01C2534.91,1194.78 2532.08,1194.17 2528.7,1194.17L2509.87,1194.17L2509.87,1243.75ZM2519.15,1216.12L2519.15,1203.09L2528,1203.09C2530.25,1203.09 2531.96,1203.69 2533.13,1204.9C2534.3,1206.1 2534.89,1207.53 2534.89,1209.18L2534.89,1210.03C2534.89,1211.92 2534.3,1213.41 2533.13,1214.5C2531.96,1215.58 2530.25,1216.12 2528,1216.12L2519.15,1216.12ZM2569.18,1243.75L2578.88,1243.75L2581.27,1233.12L2597.99,1233.12L2600.38,1243.75L2610.08,1243.75L2598.34,1194.17L2580.91,1194.17L2569.18,1243.75ZM2583.23,1224.2L2588.99,1198.84L2590.26,1198.84L2595.95,1224.2L2583.23,1224.2ZM2636.57,1243.75L2645.84,1243.75L2645.84,1225.05L2655.82,1225.05C2659.19,1225.05 2661.99,1224.33 2664.22,1222.89C2666.44,1221.45 2668.11,1219.6 2669.21,1217.33C2670.31,1215.06 2670.86,1212.7 2670.86,1210.25L2670.86,1208.55C2670.86,1206.14 2670.31,1203.84 2669.21,1201.64C2668.11,1199.44 2666.44,1197.65 2664.22,1196.26C2661.99,1194.86 2659.19,1194.17 2655.82,1194.17L2636.57,1194.17L2636.57,1243.75ZM2645.84,1216.12L2645.84,1203.09L2654.91,1203.09C2656.97,1203.09 2658.6,1203.66 2659.79,1204.79C2660.99,1205.92 2661.58,1207.39 2661.58,1209.18L2661.58,1210.03C2661.58,1211.83 2660.99,1213.29 2659.79,1214.42C2658.6,1215.56 2656.97,1216.12 2654.91,1216.12L2645.84,1216.12ZM2699.18,1243.75L2708.45,1243.75L2708.45,1223.35L2724.33,1223.35L2724.33,1243.75L2733.61,1243.75L2733.61,1194.17L2724.33,1194.17L2724.33,1214.42L2708.45,1214.42L2708.45,1194.17L2699.18,1194.17L2699.18,1243.75ZM2775.14,1243.75L2784.41,1243.75L2784.41,1226.33L2786.52,1226.33L2800.65,1194.17L2790.53,1194.17L2780.41,1217.83L2779.14,1217.83L2769.03,1194.17L2758.91,1194.17L2773.03,1226.33L2775.14,1226.33L2775.14,1243.75ZM2840.77,1243.75L2850.05,1243.75L2850.05,1225.05L2860.02,1225.05C2863.4,1225.05 2866.2,1224.33 2868.42,1222.89C2870.65,1221.45 2872.31,1219.6 2873.41,1217.33C2874.51,1215.06 2875.06,1212.7 2875.06,1210.25L2875.06,1208.55C2875.06,1206.14 2874.51,1203.84 2873.41,1201.64C2872.31,1199.44 2870.65,1197.65 2868.42,1196.26C2866.2,1194.86 2863.4,1194.17 2860.02,1194.17L2840.77,1194.17L2840.77,1243.75ZM2850.05,1216.12L2850.05,1203.09L2859.11,1203.09C2861.17,1203.09 2862.8,1203.66 2863.99,1204.79C2865.19,1205.92 2865.78,1207.39 2865.78,1209.18L2865.78,1210.03C2865.78,1211.83 2865.19,1213.29 2863.99,1214.42C2862.8,1215.56 2861.17,1216.12 2859.11,1216.12L2850.05,1216.12ZM2903.38,1243.75L2912.66,1243.75L2912.66,1223.35L2928.54,1223.35L2928.54,1243.75L2937.81,1243.75L2937.81,1194.17L2928.54,1194.17L2928.54,1214.42L2912.66,1214.42L2912.66,1194.17L2903.38,1194.17L2903.38,1243.75ZM2981.87,1244.74C2987.49,1244.74 2991.92,1243.01 2995.15,1239.54C2998.38,1236.07 3000,1231.05 3000,1224.48L3000,1213.43C3000,1207.06 2998.38,1202.09 2995.15,1198.52C2991.92,1194.96 2987.49,1193.17 2981.87,1193.17C2976.25,1193.17 2971.82,1194.96 2968.59,1198.52C2965.36,1202.09 2963.74,1207.06 2963.74,1213.43L2963.74,1224.48C2963.74,1231.05 2965.36,1236.07 2968.59,1239.54C2971.82,1243.01 2976.25,1244.74 2981.87,1244.74ZM2981.87,1236.24C2978.5,1236.24 2976.18,1235.2 2974.91,1233.12C2973.65,1231.05 2973.02,1228.36 2973.02,1225.05L2973.02,1212.87C2973.02,1210.79 2973.31,1208.9 2973.89,1207.2C2974.48,1205.5 2975.43,1204.15 2976.74,1203.16C2978.05,1202.17 2979.76,1201.67 2981.87,1201.67C2983.98,1201.67 2985.68,1202.17 2986.96,1203.16C2988.25,1204.15 2989.2,1205.5 2989.81,1207.2C2990.42,1208.9 2990.72,1210.79 2990.72,1212.87L2990.72,1225.05C2990.72,1228.36 2990.09,1231.05 2988.83,1233.12C2987.56,1235.2 2985.24,1236.24 2981.87,1236.24ZM3038.51,1243.75L3047.78,1243.75L3047.78,1203.09L3060.85,1203.09L3060.85,1194.17L3025.44,1194.17L3025.44,1203.09L3038.51,1203.09L3038.51,1243.75ZM3104.42,1244.74C3110.04,1244.74 3114.47,1243.01 3117.7,1239.54C3120.93,1236.07 3122.55,1231.05 3122.55,1224.48L3122.55,1213.43C3122.55,1207.06 3120.93,1202.09 3117.7,1198.52C3114.47,1194.96 3110.04,1193.17 3104.42,1193.17C3098.8,1193.17 3094.37,1194.96 3091.14,1198.52C3087.91,1202.09 3086.29,1207.06 3086.29,1213.43L3086.29,1224.48C3086.29,1231.05 3087.91,1236.07 3091.14,1239.54C3094.37,1243.01 3098.8,1244.74 3104.42,1244.74ZM3104.42,1236.24C3101.05,1236.24 3098.73,1235.2 3097.46,1233.12C3096.2,1231.05 3095.57,1228.36 3095.57,1225.05L3095.57,1212.87C3095.57,1210.79 3095.86,1208.9 3096.44,1207.2C3097.03,1205.5 3097.98,1204.15 3099.29,1203.16C3100.6,1202.17 3102.31,1201.67 3104.42,1201.67C3106.53,1201.67 3108.22,1202.17 3109.51,1203.16C3110.8,1204.15 3111.75,1205.5 3112.36,1207.2C3112.97,1208.9 3113.27,1210.79 3113.27,1212.87L3113.27,1225.05C3113.27,1228.36 3112.64,1231.05 3111.38,1233.12C3110.11,1235.2 3107.79,1236.24 3104.42,1236.24ZM3165.55,1244.74C3168.74,1244.74 3171.13,1244.12 3172.72,1242.87C3174.31,1241.61 3175.39,1240.07 3175.95,1238.23L3177.22,1238.23L3177.22,1243.75L3185.65,1243.75L3185.65,1218.67L3164.57,1218.67L3164.57,1227.6L3176.38,1227.6C3176.38,1230.06 3175.66,1232.04 3174.23,1233.55C3172.8,1235.06 3170.71,1235.82 3167.94,1235.82C3161.76,1235.82 3158.67,1231.99 3158.67,1224.34L3158.67,1213.86C3158.67,1209.51 3159.52,1206.47 3161.23,1204.72C3162.94,1202.97 3165.09,1202.1 3167.66,1202.1C3170.43,1202.1 3172.57,1202.87 3174.09,1204.4C3175.61,1205.94 3176.38,1208.19 3176.38,1211.17L3176.38,1212.02L3185.65,1212.02L3185.65,1211.17C3185.65,1207.81 3184.95,1204.78 3183.54,1202.07C3182.14,1199.35 3180.1,1197.19 3177.43,1195.58C3174.76,1193.98 3171.55,1193.17 3167.8,1193.17C3164.2,1193.17 3161.01,1193.94 3158.24,1195.48C3155.48,1197.01 3153.32,1199.27 3151.74,1202.24C3150.18,1205.22 3149.39,1208.85 3149.39,1213.15L3149.39,1224.77C3149.39,1229.16 3150.12,1232.84 3151.57,1235.82C3153.02,1238.79 3154.97,1241.02 3157.4,1242.51C3159.84,1244 3162.56,1244.74 3165.55,1244.74ZM3214.81,1243.75L3224.09,1243.75L3224.09,1225.05L3234.77,1225.05C3236.13,1225.05 3237.1,1225.4 3237.68,1226.11C3238.27,1226.82 3238.56,1227.74 3238.56,1228.88L3238.56,1243.75L3247.84,1243.75L3247.84,1226.61C3247.84,1224.96 3247.36,1223.59 3246.4,1222.5C3245.44,1221.41 3244.14,1220.78 3242.5,1220.59L3242.5,1219.31C3244.7,1218.37 3246.35,1217.01 3247.45,1215.24C3248.55,1213.47 3249.1,1211.57 3249.1,1209.54L3249.1,1207.84C3249.1,1205.29 3248.52,1202.99 3247.35,1200.93C3246.18,1198.88 3244.44,1197.24 3242.15,1196.01C3239.85,1194.78 3237.02,1194.17 3233.64,1194.17L3214.81,1194.17L3214.81,1243.75ZM3224.09,1216.12L3224.09,1203.09L3232.94,1203.09C3235.19,1203.09 3236.9,1203.69 3238.07,1204.9C3239.24,1206.1 3239.83,1207.53 3239.83,1209.18L3239.83,1210.03C3239.83,1211.92 3239.24,1213.41 3238.07,1214.5C3236.9,1215.58 3235.19,1216.12 3232.94,1216.12L3224.09,1216.12ZM3274.12,1243.75L3283.82,1243.75L3286.2,1233.12L3302.93,1233.12L3305.32,1243.75L3315.02,1243.75L3303.28,1194.17L3285.85,1194.17L3274.12,1243.75ZM3288.17,1224.2L3293.93,1198.84L3295.2,1198.84L3300.89,1224.2L3288.17,1224.2ZM3341.51,1243.75L3350.78,1243.75L3350.78,1225.05L3360.76,1225.05C3364.13,1225.05 3366.93,1224.33 3369.16,1222.89C3371.38,1221.45 3373.05,1219.6 3374.15,1217.33C3375.25,1215.06 3375.8,1212.7 3375.8,1210.25L3375.8,1208.55C3375.8,1206.14 3375.25,1203.84 3374.15,1201.64C3373.05,1199.44 3371.38,1197.65 3369.16,1196.26C3366.93,1194.86 3364.13,1194.17 3360.76,1194.17L3341.51,1194.17L3341.51,1243.75ZM3350.78,1216.12L3350.78,1203.09L3359.85,1203.09C3361.91,1203.09 3363.54,1203.66 3364.73,1204.79C3365.93,1205.92 3366.52,1207.39 3366.52,1209.18L3366.52,1210.03C3366.52,1211.83 3365.93,1213.29 3364.73,1214.42C3363.54,1215.56 3361.91,1216.12 3359.85,1216.12L3350.78,1216.12ZM2515.41,1362.13L2515.41,1412.32C2515.41,1426.36 2522.73,1437.64 2543.16,1437.64L2551.74,1437.64C2573.44,1437.64 2582.53,1426.36 2582.53,1411.39L2582.53,1264.75L2549.98,1264.75L2549.98,1409.78C2549.98,1411.86 2549.22,1412.78 2547.45,1412.78L2547.2,1412.78C2545.43,1412.78 2544.43,1411.86 2544.43,1409.78L2544.43,1362.13L2515.41,1362.13ZM2836.11,1437.64C2846.7,1437.64 2853.52,1431.19 2857.81,1425.21C2858.82,1427.28 2860.58,1433.5 2861.09,1436.03L2882.53,1436.03L2882.53,1335.2L2845.7,1335.2L2845.7,1357.53L2852.26,1357.53L2852.26,1408.63C2852.26,1412.09 2850.49,1413.93 2847.71,1413.93C2844.69,1413.93 2843.17,1412.09 2843.17,1408.63L2843.17,1291.69C2843.17,1288.92 2843.93,1287.31 2846.7,1287.31C2849.73,1287.31 2850.49,1288.92 2850.49,1291.69L2850.49,1328.98L2881.27,1328.98L2881.27,1290.54C2881.27,1276.72 2874.21,1263.14 2848.47,1263.14L2844.18,1263.14C2818.95,1263.14 2810.37,1276.72 2810.37,1292.84L2810.37,1409.32C2810.37,1424.52 2818.45,1437.64 2835.35,1437.64L2836.11,1437.64ZM3068.24,1296.98C3068.24,1276.49 3057.9,1263.14 3034.18,1263.14L3029.13,1263.14C3005.41,1263.14 2995.07,1276.03 2995.07,1296.98L2995.07,1404.49C2995.07,1425.44 3007.18,1437.64 3029.13,1437.64L3034.43,1437.64C3055.12,1437.64 3068.24,1425.9 3068.24,1404.49L3068.24,1296.98ZM3035.44,1407.02C3035.44,1410.01 3034.18,1411.62 3031.66,1411.62C3029.13,1411.62 3028.12,1410.01 3028.12,1407.02L3028.12,1293.76C3028.12,1290.31 3028.88,1288.69 3031.66,1288.69C3034.43,1288.69 3035.44,1290.54 3035.44,1293.76L3035.44,1407.02ZM2695.06,1264.75L2695.06,1436.03L2721.81,1436.03L2721.55,1333.35L2736.44,1436.03L2765.96,1436.03L2765.96,1264.75L2739.47,1264.75L2739.72,1357.53L2727.36,1264.75L2695.06,1264.75ZM2675.38,1296.98C2675.38,1276.49 2665.03,1263.14 2641.32,1263.14L2636.27,1263.14C2612.55,1263.14 2602.21,1276.03 2602.21,1296.98L2602.21,1404.49C2602.21,1425.44 2614.32,1437.64 2636.27,1437.64L2641.57,1437.64C2662.26,1437.64 2675.38,1425.9 2675.38,1404.49L2675.38,1296.98ZM2642.58,1407.02C2642.58,1410.01 2641.32,1411.62 2638.79,1411.62C2636.27,1411.62 2635.26,1410.01 2635.26,1407.02L2635.26,1293.76C2635.26,1290.31 2636.02,1288.69 2638.79,1288.69C2641.57,1288.69 2642.58,1290.54 2642.58,1293.76L2642.58,1407.02ZM2975.39,1296.98C2975.39,1276.49 2965.04,1263.14 2941.32,1263.14L2936.28,1263.14C2912.56,1263.14 2902.22,1276.03 2902.22,1296.98L2902.22,1404.49C2902.22,1425.44 2914.33,1437.64 2936.28,1437.64L2941.58,1437.64C2962.27,1437.64 2975.39,1425.9 2975.39,1404.49L2975.39,1296.98ZM2942.59,1407.02C2942.59,1410.01 2941.32,1411.62 2938.8,1411.62C2936.28,1411.62 2935.27,1410.01 2935.27,1407.02L2935.27,1293.76C2935.27,1290.31 2936.03,1288.69 2938.8,1288.69C2941.58,1288.69 2942.59,1290.54 2942.59,1293.76L2942.59,1407.02Z" style="fill:white;"/>
            </g>
        </g>
    </g>
</svg>
