<?xml version="1.0" encoding="UTF-8" standalone="no"?>
<!DOCTYPE svg PUBLIC "-//W3C//DTD SVG 1.1//EN" "http://www.w3.org/Graphics/SVG/1.1/DTD/svg11.dtd">
<svg width="100%" height="100%" viewBox="0 0 570 300" version="1.1" xmlns="http://www.w3.org/2000/svg" xmlns:xlink="http://www.w3.org/1999/xlink" xml:space="preserve" xmlns:serif="http://www.serif.com/" style="fill-rule:evenodd;clip-rule:evenodd;stroke-linejoin:round;stroke-miterlimit:2;">
    <g transform="matrix(1,0,0,1,160,-1490)">
        <g transform="matrix(0.876923,0,0,0.810811,15.3846,330.541)">
            <g id="Fixed-logo" serif:id="Fixed logo">
                <path d="M450,1430L450,1800L-200,1800L-200,1430L450,1430ZM369.144,1715.17L414.359,1715.17C427.948,1715.17 438.079,1705.81 438.079,1684.97L438.079,1544.95C438.079,1523.84 427.454,1516.35 413.865,1516.35L369.144,1516.35L369.144,1715.17ZM399.782,1543.61L402.747,1543.61C405.712,1543.61 406.453,1545.75 406.453,1549.76L406.453,1680.43C406.453,1684.97 405.712,1687.11 402.747,1687.11L399.782,1687.11L399.782,1543.61ZM-15.553,1516.35L-15.553,1715.17L10.637,1715.17L10.39,1595.99L24.967,1715.17L53.875,1715.17L53.875,1516.35L27.932,1516.35L28.179,1624.04L16.073,1516.35L-15.553,1516.35ZM412.725,1787.05L422.133,1787.05L422.133,1768.09L424.271,1768.09L438.596,1733.09L428.333,1733.09L418.07,1758.84L416.787,1758.84L406.524,1733.09L396.261,1733.09L410.587,1768.09L412.725,1768.09L412.725,1787.05ZM-32.354,1553.77C-32.354,1529.98 -42.484,1514.48 -65.709,1514.48L-70.651,1514.48C-93.876,1514.48 -104.006,1529.45 -104.006,1553.77L-104.006,1678.56C-104.006,1702.88 -92.147,1717.04 -70.651,1717.04L-65.462,1717.04C-45.202,1717.04 -32.354,1703.41 -32.354,1678.56L-32.354,1553.77ZM-64.474,1681.5C-64.474,1684.97 -65.709,1686.84 -68.18,1686.84C-70.651,1686.84 -71.639,1684.97 -71.639,1681.5L-71.639,1550.02C-71.639,1546.02 -70.898,1544.14 -68.18,1544.14C-65.462,1544.14 -64.474,1546.28 -64.474,1550.02L-64.474,1681.5ZM-186.53,1629.39L-186.53,1687.64C-186.53,1703.94 -179.364,1717.04 -159.351,1717.04L-150.951,1717.04C-129.702,1717.04 -120.807,1703.94 -120.807,1686.57L-120.807,1516.35L-152.68,1516.35L-152.68,1684.7C-152.68,1687.11 -153.421,1688.18 -155.151,1688.18L-155.398,1688.18C-157.128,1688.18 -158.116,1687.11 -158.116,1684.7L-158.116,1629.39L-186.53,1629.39ZM263.89,1553.77C263.89,1529.98 253.76,1514.48 230.535,1514.48L225.593,1514.48C202.368,1514.48 192.238,1529.45 192.238,1553.77L192.238,1678.56C192.238,1702.88 204.098,1717.04 225.593,1717.04L230.782,1717.04C251.042,1717.04 263.89,1703.41 263.89,1678.56L263.89,1553.77ZM231.77,1681.5C231.77,1684.97 230.535,1686.84 228.064,1686.84C225.593,1686.84 224.605,1684.97 224.605,1681.5L224.605,1550.02C224.605,1546.02 225.346,1544.14 228.064,1544.14C230.782,1544.14 231.77,1546.28 231.77,1550.02L231.77,1681.5ZM352.343,1553.77C352.343,1529.98 342.213,1514.48 318.988,1514.48L314.046,1514.48C290.821,1514.48 280.691,1529.45 280.691,1553.77L280.691,1678.56C280.691,1702.88 292.551,1717.04 314.046,1717.04L319.235,1717.04C339.495,1717.04 352.343,1703.41 352.343,1678.56L352.343,1553.77ZM320.223,1681.5C320.223,1684.97 318.988,1686.84 316.517,1686.84C314.046,1686.84 313.058,1684.97 313.058,1681.5L313.058,1550.02C313.058,1546.02 313.799,1544.14 316.517,1544.14C319.235,1544.14 320.223,1546.28 320.223,1550.02L320.223,1681.5ZM129.975,1717.04C140.352,1717.04 147.023,1709.56 151.223,1702.61C152.212,1705.01 153.941,1712.23 154.435,1715.17L175.437,1715.17L175.437,1598.12L139.364,1598.12L139.364,1624.04L145.788,1624.04L145.788,1683.37C145.788,1687.38 144.058,1689.51 141.34,1689.51C138.375,1689.51 136.893,1687.38 136.893,1683.37L136.893,1547.62C136.893,1544.41 137.634,1542.54 140.352,1542.54C143.317,1542.54 144.058,1544.41 144.058,1547.62L144.058,1590.91L174.201,1590.91L174.201,1546.28C174.201,1530.25 167.283,1514.48 142.082,1514.48L137.881,1514.48C113.174,1514.48 104.773,1530.25 104.773,1548.95L104.773,1684.17C104.773,1701.81 112.679,1717.04 129.234,1717.04L129.975,1717.04ZM339.956,1787.05L349.364,1787.05L349.364,1764.85L365.471,1764.85L365.471,1787.05L374.879,1787.05L374.879,1733.09L365.471,1733.09L365.471,1755.14L349.364,1755.14L349.364,1733.09L339.956,1733.09L339.956,1787.05ZM-186.53,1787.05L-177.122,1787.05L-177.122,1766.7L-167.001,1766.7C-163.58,1766.7 -160.741,1765.92 -158.484,1764.35C-156.227,1762.78 -154.54,1760.77 -153.424,1758.3C-152.307,1755.83 -151.749,1753.26 -151.749,1750.59L-151.749,1748.74C-151.749,1746.12 -152.307,1743.61 -153.424,1741.22C-154.54,1738.83 -156.227,1736.88 -158.484,1735.37C-160.741,1733.85 -163.58,1733.09 -167.001,1733.09L-186.53,1733.09L-186.53,1787.05ZM-177.122,1756.99L-177.122,1742.8L-167.928,1742.8C-165.837,1742.8 -164.186,1743.42 -162.974,1744.65C-161.763,1745.89 -161.157,1747.48 -161.157,1749.43L-161.157,1750.36C-161.157,1752.31 -161.763,1753.9 -162.974,1755.14C-164.186,1756.37 -165.837,1756.99 -167.928,1756.99L-177.122,1756.99ZM56.65,1788.13C62.352,1788.13 66.842,1786.24 70.121,1782.46C73.399,1778.69 75.038,1773.23 75.038,1766.08L75.038,1754.06C75.038,1747.12 73.399,1741.71 70.121,1737.83C66.842,1733.95 62.352,1732.01 56.65,1732.01C50.948,1732.01 46.458,1733.95 43.18,1737.83C39.901,1741.71 38.262,1747.12 38.262,1754.06L38.262,1766.08C38.262,1773.23 39.901,1778.69 43.18,1782.46C46.458,1786.24 50.948,1788.13 56.65,1788.13ZM56.65,1778.88C53.229,1778.88 50.877,1777.75 49.594,1775.49C48.311,1773.23 47.67,1770.3 47.67,1766.7L47.67,1753.44C47.67,1751.18 47.967,1749.12 48.561,1747.28C49.155,1745.42 50.117,1743.96 51.447,1742.88C52.778,1741.8 54.512,1741.26 56.65,1741.26C58.788,1741.26 60.511,1741.8 61.817,1742.88C63.124,1743.96 64.086,1745.42 64.704,1747.28C65.322,1749.12 65.63,1751.18 65.63,1753.44L65.63,1766.7C65.63,1770.3 64.989,1773.23 63.706,1775.49C62.423,1777.75 60.071,1778.88 56.65,1778.88ZM282.155,1787.05L291.562,1787.05L291.562,1766.7L301.683,1766.7C305.104,1766.7 307.943,1765.92 310.2,1764.35C312.457,1762.78 314.144,1760.77 315.26,1758.3C316.377,1755.83 316.935,1753.26 316.935,1750.59L316.935,1748.74C316.935,1746.12 316.377,1743.61 315.26,1741.22C314.144,1738.83 312.457,1736.88 310.2,1735.37C307.943,1733.85 305.104,1733.09 301.683,1733.09L282.155,1733.09L282.155,1787.05ZM291.562,1756.99L291.562,1742.8L300.757,1742.8C302.847,1742.8 304.498,1743.42 305.71,1744.65C306.922,1745.89 307.527,1747.48 307.527,1749.43L307.527,1750.36C307.527,1752.31 306.922,1753.9 305.71,1755.14C304.498,1756.37 302.847,1756.99 300.757,1756.99L291.562,1756.99ZM339.956,1497.37L349.364,1497.37L349.364,1475.17L365.471,1475.17L365.471,1497.37L374.879,1497.37L374.879,1443.41L365.471,1443.41L365.471,1465.46L349.364,1465.46L349.364,1443.41L339.956,1443.41L339.956,1497.37ZM115.806,1788.13C119.037,1788.13 121.46,1787.45 123.076,1786.09C124.691,1784.73 125.784,1783.04 126.354,1781.04L127.637,1781.04L127.637,1787.05L136.19,1787.05L136.19,1759.76L114.808,1759.76L114.808,1769.48L126.782,1769.48C126.782,1772.15 126.057,1774.31 124.608,1775.95C123.159,1777.59 121.033,1778.42 118.229,1778.42C111.957,1778.42 108.821,1774.25 108.821,1765.93L108.821,1754.52C108.821,1749.79 109.688,1746.48 111.423,1744.58C113.157,1742.68 115.331,1741.73 117.944,1741.73C120.747,1741.73 122.921,1742.56 124.465,1744.23C126.01,1745.9 126.782,1748.35 126.782,1751.59L126.782,1752.52L136.19,1752.52L136.19,1751.59C136.19,1747.94 135.477,1744.64 134.052,1741.69C132.626,1738.73 130.559,1736.38 127.851,1734.63C125.143,1732.89 121.888,1732.01 118.087,1732.01C114.428,1732.01 111.197,1732.85 108.394,1734.52C105.59,1736.19 103.393,1738.64 101.801,1741.88C100.209,1745.12 99.413,1749.07 99.413,1753.75L99.413,1766.39C99.413,1771.17 100.15,1775.18 101.623,1778.42C103.096,1781.65 105.068,1784.08 107.538,1785.7C110.009,1787.32 112.765,1788.13 115.806,1788.13ZM115.806,1498.45C119.037,1498.45 121.46,1497.77 123.076,1496.41C124.691,1495.05 125.784,1493.36 126.354,1491.36L127.637,1491.36L127.637,1497.37L136.19,1497.37L136.19,1470.08L114.808,1470.08L114.808,1479.8L126.782,1479.8C126.782,1482.47 126.057,1484.63 124.608,1486.27C123.159,1487.91 121.033,1488.74 118.229,1488.74C111.957,1488.74 108.821,1484.58 108.821,1476.25L108.821,1464.84C108.821,1460.11 109.688,1456.8 111.423,1454.9C113.157,1453 115.331,1452.05 117.944,1452.05C120.747,1452.05 122.921,1452.88 124.465,1454.55C126.01,1456.22 126.782,1458.67 126.782,1461.91L126.782,1462.84L136.19,1462.84L136.19,1461.91C136.19,1458.26 135.477,1454.96 134.052,1452.01C132.626,1449.05 130.559,1446.7 127.851,1444.95C125.143,1443.21 121.888,1442.33 118.087,1442.33C114.428,1442.33 111.197,1443.17 108.394,1444.84C105.59,1446.51 103.393,1448.96 101.801,1452.2C100.209,1455.44 99.413,1459.39 99.413,1464.07L99.413,1476.71C99.413,1481.49 100.15,1485.5 101.623,1488.74C103.096,1491.98 105.068,1494.4 107.538,1496.02C110.009,1497.64 112.765,1498.45 115.806,1498.45ZM-186.53,1497.37L-177.122,1497.37L-177.122,1477.02L-167.001,1477.02C-163.58,1477.02 -160.741,1476.24 -158.484,1474.67C-156.227,1473.1 -154.54,1471.09 -153.424,1468.62C-152.307,1466.15 -151.749,1463.58 -151.749,1460.91L-151.749,1459.06C-151.749,1456.44 -152.307,1453.93 -153.424,1451.55C-154.54,1449.15 -156.227,1447.2 -158.484,1445.69C-160.741,1444.17 -163.58,1443.41 -167.001,1443.41L-186.53,1443.41L-186.53,1497.37ZM-177.122,1467.31L-177.122,1453.12L-167.928,1453.12C-165.837,1453.12 -164.186,1453.74 -162.974,1454.98C-161.763,1456.21 -161.157,1457.8 -161.157,1459.75L-161.157,1460.68C-161.157,1462.63 -161.763,1464.23 -162.974,1465.46C-164.186,1466.69 -165.837,1467.31 -167.928,1467.31L-177.122,1467.31ZM-131.579,1497.37L-122.171,1497.37L-122.171,1475.17L-106.064,1475.17L-106.064,1497.37L-96.656,1497.37L-96.656,1443.41L-106.064,1443.41L-106.064,1465.46L-122.171,1465.46L-122.171,1443.41L-131.579,1443.41L-131.579,1497.37ZM162.204,1787.05L171.612,1787.05L171.612,1766.7L182.445,1766.7C183.823,1766.7 184.809,1767.09 185.403,1767.86C185.997,1768.63 186.294,1769.63 186.294,1770.86L186.294,1787.05L195.702,1787.05L195.702,1768.4C195.702,1766.6 195.215,1765.11 194.241,1763.92C193.267,1762.74 191.948,1762.05 190.285,1761.84L190.285,1760.46C192.518,1759.43 194.193,1757.95 195.31,1756.02C196.426,1754.1 196.985,1752.03 196.985,1749.82L196.985,1747.97C196.985,1745.19 196.391,1742.69 195.203,1740.45C194.015,1738.22 192.257,1736.43 189.929,1735.1C187.601,1733.76 184.726,1733.09 181.305,1733.09L162.204,1733.09L162.204,1787.05ZM171.612,1756.99L171.612,1742.8L180.592,1742.8C182.873,1742.8 184.607,1743.46 185.795,1744.77C186.983,1746.08 187.577,1747.63 187.577,1749.43L187.577,1750.36C187.577,1752.41 186.983,1754.03 185.795,1755.22C184.607,1756.4 182.873,1756.99 180.592,1756.99L171.612,1756.99ZM-4.501,1787.05L4.907,1787.05L4.907,1742.8L18.163,1742.8L18.163,1733.09L-17.758,1733.09L-17.758,1742.8L-4.501,1742.8L-4.501,1787.05ZM56.65,1498.45C62.352,1498.45 66.842,1496.56 70.121,1492.78C73.399,1489.01 75.038,1483.55 75.038,1476.4L75.038,1464.38C75.038,1457.44 73.399,1452.03 70.121,1448.15C66.842,1444.27 62.352,1442.33 56.65,1442.33C50.948,1442.33 46.458,1444.27 43.18,1448.15C39.901,1452.03 38.262,1457.44 38.262,1464.38L38.262,1476.4C38.262,1483.55 39.901,1489.01 43.18,1492.78C46.458,1496.56 50.948,1498.45 56.65,1498.45ZM56.65,1489.2C53.229,1489.2 50.877,1488.07 49.594,1485.81C48.311,1483.55 47.67,1480.62 47.67,1477.02L47.67,1463.76C47.67,1461.5 47.967,1459.45 48.561,1457.6C49.155,1455.75 50.117,1454.28 51.447,1453.2C52.778,1452.12 54.512,1451.58 56.65,1451.58C58.788,1451.58 60.511,1452.12 61.817,1453.2C63.124,1454.28 64.086,1455.75 64.704,1457.6C65.322,1459.45 65.63,1461.5 65.63,1463.76L65.63,1477.02C65.63,1480.62 64.989,1483.55 63.706,1485.81C62.423,1488.07 60.071,1489.2 56.65,1489.2ZM412.725,1497.37L422.133,1497.37L422.133,1478.41L424.271,1478.41L438.596,1443.41L428.333,1443.41L418.07,1469.16L416.787,1469.16L406.524,1443.41L396.261,1443.41L410.587,1478.41L412.725,1478.41L412.725,1497.37ZM218.081,1497.37L227.917,1497.37L230.34,1485.81L247.303,1485.81L249.726,1497.37L259.561,1497.37L247.659,1443.41L229.984,1443.41L218.081,1497.37ZM232.336,1476.1L238.18,1448.5L239.463,1448.5L245.236,1476.1L232.336,1476.1ZM-55.532,1498.45C-49.83,1498.45 -45.34,1496.56 -42.061,1492.78C-38.783,1489.01 -37.144,1483.55 -37.144,1476.4L-37.144,1464.38C-37.144,1457.44 -38.783,1452.03 -42.061,1448.15C-45.34,1444.27 -49.83,1442.33 -55.532,1442.33C-61.234,1442.33 -65.724,1444.27 -69.002,1448.15C-72.281,1452.03 -73.92,1457.44 -73.92,1464.38L-73.92,1476.4C-73.92,1483.55 -72.281,1489.01 -69.002,1492.78C-65.724,1496.56 -61.234,1498.45 -55.532,1498.45ZM-55.532,1489.2C-58.953,1489.2 -61.305,1488.07 -62.588,1485.81C-63.871,1483.55 -64.512,1480.62 -64.512,1477.02L-64.512,1463.76C-64.512,1461.5 -64.215,1459.45 -63.621,1457.6C-63.027,1455.75 -62.065,1454.28 -60.735,1453.2C-59.404,1452.12 -57.67,1451.58 -55.532,1451.58C-53.394,1451.58 -51.671,1452.12 -50.365,1453.2C-49.058,1454.28 -48.096,1455.75 -47.478,1457.6C-46.86,1459.45 -46.552,1461.5 -46.552,1463.76L-46.552,1477.02C-46.552,1480.62 -47.193,1483.55 -48.476,1485.81C-49.759,1488.07 -52.111,1489.2 -55.532,1489.2ZM282.155,1497.37L291.562,1497.37L291.562,1477.02L301.683,1477.02C305.104,1477.02 307.943,1476.24 310.2,1474.67C312.457,1473.1 314.144,1471.09 315.26,1468.62C316.377,1466.15 316.935,1463.58 316.935,1460.91L316.935,1459.06C316.935,1456.44 316.377,1453.93 315.26,1451.55C314.144,1449.15 312.457,1447.2 310.2,1445.69C307.943,1444.17 305.104,1443.41 301.683,1443.41L282.155,1443.41L282.155,1497.37ZM291.562,1467.31L291.562,1453.12L300.757,1453.12C302.847,1453.12 304.498,1453.74 305.71,1454.98C306.922,1456.21 307.527,1457.8 307.527,1459.75L307.527,1460.68C307.527,1462.63 306.922,1464.23 305.71,1465.46C304.498,1466.69 302.847,1467.31 300.757,1467.31L291.562,1467.31ZM-131.579,1787.05L-122.171,1787.05L-122.171,1764.85L-106.064,1764.85L-106.064,1787.05L-96.656,1787.05L-96.656,1733.09L-106.064,1733.09L-106.064,1755.14L-122.171,1755.14L-122.171,1733.09L-131.579,1733.09L-131.579,1787.05ZM218.081,1787.05L227.917,1787.05L230.34,1775.49L247.303,1775.49L249.726,1787.05L259.561,1787.05L247.659,1733.09L229.984,1733.09L218.081,1787.05ZM232.336,1765.78L238.18,1738.18L239.463,1738.18L245.236,1765.78L232.336,1765.78ZM-4.501,1497.37L4.907,1497.37L4.907,1453.12L18.163,1453.12L18.163,1443.41L-17.758,1443.41L-17.758,1453.12L-4.501,1453.12L-4.501,1497.37ZM162.204,1497.37L171.612,1497.37L171.612,1477.02L182.445,1477.02C183.823,1477.02 184.809,1477.41 185.403,1478.18C185.997,1478.95 186.294,1479.95 186.294,1481.18L186.294,1497.37L195.702,1497.37L195.702,1478.72C195.702,1476.92 195.215,1475.43 194.241,1474.25C193.267,1473.06 191.948,1472.37 190.285,1472.16L190.285,1470.78C192.518,1469.75 194.193,1468.27 195.31,1466.35C196.426,1464.42 196.985,1462.35 196.985,1460.14L196.985,1458.29C196.985,1455.52 196.391,1453.01 195.203,1450.77C194.015,1448.54 192.257,1446.75 189.929,1445.42C187.601,1444.08 184.726,1443.41 181.305,1443.41L162.204,1443.41L162.204,1497.37ZM171.612,1467.31L171.612,1453.12L180.592,1453.12C182.873,1453.12 184.607,1453.78 185.795,1455.09C186.983,1456.4 187.577,1457.96 187.577,1459.75L187.577,1460.68C187.577,1462.74 186.983,1464.35 185.795,1465.54C184.607,1466.72 182.873,1467.31 180.592,1467.31L171.612,1467.31ZM-55.532,1788.13C-49.83,1788.13 -45.34,1786.24 -42.061,1782.46C-38.783,1778.69 -37.144,1773.23 -37.144,1766.08L-37.144,1754.06C-37.144,1747.12 -38.783,1741.71 -42.061,1737.83C-45.34,1733.95 -49.83,1732.01 -55.532,1732.01C-61.234,1732.01 -65.724,1733.95 -69.002,1737.83C-72.281,1741.71 -73.92,1747.12 -73.92,1754.06L-73.92,1766.08C-73.92,1773.23 -72.281,1778.69 -69.002,1782.46C-65.724,1786.24 -61.234,1788.13 -55.532,1788.13ZM-55.532,1778.88C-58.953,1778.88 -61.305,1777.75 -62.588,1775.49C-63.871,1773.23 -64.512,1770.3 -64.512,1766.7L-64.512,1753.44C-64.512,1751.18 -64.215,1749.12 -63.621,1747.28C-63.027,1745.42 -62.065,1743.96 -60.735,1742.88C-59.404,1741.8 -57.67,1741.26 -55.532,1741.26C-53.394,1741.26 -51.671,1741.8 -50.365,1742.88C-49.058,1743.96 -48.096,1745.42 -47.478,1747.28C-46.86,1749.12 -46.552,1751.18 -46.552,1753.44L-46.552,1766.7C-46.552,1770.3 -47.193,1773.23 -48.476,1775.49C-49.759,1777.75 -52.111,1778.88 -55.532,1778.88Z" style="fill:white;"/>
            </g>
        </g>
    </g>
</svg>
