<?xml version="1.0" encoding="UTF-8" standalone="no"?>
<!DOCTYPE svg PUBLIC "-//W3C//DTD SVG 1.1//EN" "http://www.w3.org/Graphics/SVG/1.1/DTD/svg11.dtd">
<svg width="100%" height="100%" viewBox="0 0 1404 169" version="1.1" xmlns="http://www.w3.org/2000/svg" xmlns:xlink="http://www.w3.org/1999/xlink" xml:space="preserve" xmlns:serif="http://www.serif.com/" style="fill-rule:evenodd;clip-rule:evenodd;stroke-linejoin:round;stroke-miterlimit:2;">
    <g transform="matrix(1,0,0,1,-352,-1211.77)">
        <g>
            <g transform="matrix(1,0,0,1,-3365.52,44.0807)">
                <g transform="matrix(216.667,0,0,216.667,3728.94,1334.4)">
                    <path d="M0.007,-0.321L0.007,-0.103C0.007,-0.042 0.036,0.007 0.117,0.007L0.151,0.007C0.237,0.007 0.273,-0.042 0.273,-0.107L0.273,-0.744L0.144,-0.744L0.144,-0.114C0.144,-0.105 0.141,-0.101 0.134,-0.101L0.133,-0.101C0.126,-0.101 0.122,-0.105 0.122,-0.114L0.122,-0.321L0.007,-0.321Z" style="fill:rgb(255,0,70);fill-rule:nonzero;"/>
                </g>
                <g transform="matrix(216.667,0,0,216.667,3800.87,1334.4)">
                    <path d="M0.299,-0.604C0.299,-0.693 0.258,-0.751 0.164,-0.751L0.144,-0.751C0.05,-0.751 0.009,-0.695 0.009,-0.604L0.009,-0.137C0.009,-0.046 0.057,0.007 0.144,0.007L0.165,0.007C0.247,0.007 0.299,-0.044 0.299,-0.137L0.299,-0.604ZM0.169,-0.126C0.169,-0.113 0.164,-0.106 0.154,-0.106C0.144,-0.106 0.14,-0.113 0.14,-0.126L0.14,-0.618C0.14,-0.633 0.143,-0.64 0.154,-0.64C0.165,-0.64 0.169,-0.632 0.169,-0.618L0.169,-0.126Z" style="fill:rgb(255,0,70);fill-rule:nonzero;"/>
                </g>
                <g transform="matrix(216.667,0,0,216.667,3878.44,1334.4)">
                    <path d="M0.009,-0.744L0.009,-0L0.115,-0L0.114,-0.446L0.173,-0L0.29,-0L0.29,-0.744L0.185,-0.744L0.186,-0.341L0.137,-0.744L0.009,-0.744Z" style="fill:rgb(255,0,70);fill-rule:nonzero;"/>
                </g>
                <g transform="matrix(216.667,0,0,216.667,3983.95,1334.4)">
                    <path d="M0.111,0.007C0.153,0.007 0.18,-0.021 0.197,-0.047C0.201,-0.038 0.208,-0.011 0.21,-0L0.295,-0L0.295,-0.438L0.149,-0.438L0.149,-0.341L0.175,-0.341L0.175,-0.119C0.175,-0.104 0.168,-0.096 0.157,-0.096C0.145,-0.096 0.139,-0.104 0.139,-0.119L0.139,-0.627C0.139,-0.639 0.142,-0.646 0.153,-0.646C0.165,-0.646 0.168,-0.639 0.168,-0.627L0.168,-0.465L0.29,-0.465L0.29,-0.632C0.29,-0.692 0.262,-0.751 0.16,-0.751L0.143,-0.751C0.043,-0.751 0.009,-0.692 0.009,-0.622L0.009,-0.116C0.009,-0.05 0.041,0.007 0.108,0.007L0.111,0.007Z" style="fill:rgb(255,0,70);fill-rule:nonzero;"/>
                </g>
                <g transform="matrix(216.667,0,0,216.667,4060.65,1334.4)">
                    <path d="M0.299,-0.604C0.299,-0.693 0.258,-0.751 0.164,-0.751L0.144,-0.751C0.05,-0.751 0.009,-0.695 0.009,-0.604L0.009,-0.137C0.009,-0.046 0.057,0.007 0.144,0.007L0.165,0.007C0.247,0.007 0.299,-0.044 0.299,-0.137L0.299,-0.604ZM0.169,-0.126C0.169,-0.113 0.164,-0.106 0.154,-0.106C0.144,-0.106 0.14,-0.113 0.14,-0.126L0.14,-0.618C0.14,-0.633 0.143,-0.64 0.154,-0.64C0.165,-0.64 0.169,-0.632 0.169,-0.618L0.169,-0.126Z" style="fill:rgb(255,0,70);fill-rule:nonzero;"/>
                </g>
                <g transform="matrix(216.667,0,0,216.667,4138.22,1334.4)">
                    <path d="M0.299,-0.604C0.299,-0.693 0.258,-0.751 0.164,-0.751L0.144,-0.751C0.05,-0.751 0.009,-0.695 0.009,-0.604L0.009,-0.137C0.009,-0.046 0.057,0.007 0.144,0.007L0.165,0.007C0.247,0.007 0.299,-0.044 0.299,-0.137L0.299,-0.604ZM0.169,-0.126C0.169,-0.113 0.164,-0.106 0.154,-0.106C0.144,-0.106 0.14,-0.113 0.14,-0.126L0.14,-0.618C0.14,-0.633 0.143,-0.64 0.154,-0.64C0.165,-0.64 0.169,-0.632 0.169,-0.618L0.169,-0.126Z" style="fill:rgb(255,0,70);fill-rule:nonzero;"/>
                </g>
                <g transform="matrix(216.667,0,0,216.667,4215.79,1334.4)">
                    <path d="M0.009,-0L0.192,-0C0.247,-0 0.288,-0.035 0.288,-0.113L0.288,-0.637C0.288,-0.716 0.245,-0.744 0.19,-0.744L0.009,-0.744L0.009,-0ZM0.133,-0.642L0.145,-0.642C0.157,-0.642 0.16,-0.634 0.16,-0.619L0.16,-0.13C0.16,-0.113 0.157,-0.105 0.145,-0.105L0.133,-0.105L0.133,-0.642Z" style="fill:rgb(255,0,70);fill-rule:nonzero;"/>
                </g>
                <g transform="matrix(216.667,0,0,216.667,4318.7,1334.4)">
                    <path d="M0.195,-0.308C0.244,-0.308 0.284,-0.341 0.284,-0.407L0.284,-0.647C0.284,-0.716 0.246,-0.744 0.193,-0.744L0.009,-0.744L0.009,-0L0.135,-0L0.135,-0.308L0.195,-0.308ZM0.135,-0.648L0.144,-0.648C0.157,-0.648 0.159,-0.641 0.159,-0.629L0.159,-0.428C0.159,-0.414 0.155,-0.409 0.144,-0.409L0.135,-0.409L0.135,-0.648Z" style="fill:rgb(255,0,70);fill-rule:nonzero;"/>
                </g>
                <g transform="matrix(216.667,0,0,216.667,4392.59,1334.4)">
                    <path d="M0.009,-0L0.136,-0L0.136,-0.324L0.163,-0.324L0.163,-0L0.289,-0L0.289,-0.744L0.163,-0.744L0.163,-0.455L0.136,-0.455L0.136,-0.744L0.009,-0.744L0.009,-0Z" style="fill:rgb(255,0,70);fill-rule:nonzero;"/>
                </g>
                <g transform="matrix(216.667,0,0,216.667,4467.99,1334.4)">
                    <path d="M0.299,-0.604C0.299,-0.693 0.258,-0.751 0.164,-0.751L0.144,-0.751C0.05,-0.751 0.009,-0.695 0.009,-0.604L0.009,-0.137C0.009,-0.046 0.057,0.007 0.144,0.007L0.165,0.007C0.247,0.007 0.299,-0.044 0.299,-0.137L0.299,-0.604ZM0.169,-0.126C0.169,-0.113 0.164,-0.106 0.154,-0.106C0.144,-0.106 0.14,-0.113 0.14,-0.126L0.14,-0.618C0.14,-0.633 0.143,-0.64 0.154,-0.64C0.165,-0.64 0.169,-0.632 0.169,-0.618L0.169,-0.126Z" style="fill:rgb(255,0,70);fill-rule:nonzero;"/>
                </g>
                <g transform="matrix(216.667,0,0,216.667,4544.25,1334.4)">
                    <path d="M0.064,-0L0.189,-0L0.189,-0.63L0.246,-0.63L0.246,-0.744L0.007,-0.744L0.007,-0.63L0.064,-0.63L0.064,-0Z" style="fill:rgb(255,0,70);fill-rule:nonzero;"/>
                </g>
                <g transform="matrix(216.667,0,0,216.667,4608.6,1334.4)">
                    <path d="M0.299,-0.604C0.299,-0.693 0.258,-0.751 0.164,-0.751L0.144,-0.751C0.05,-0.751 0.009,-0.695 0.009,-0.604L0.009,-0.137C0.009,-0.046 0.057,0.007 0.144,0.007L0.165,0.007C0.247,0.007 0.299,-0.044 0.299,-0.137L0.299,-0.604ZM0.169,-0.126C0.169,-0.113 0.164,-0.106 0.154,-0.106C0.144,-0.106 0.14,-0.113 0.14,-0.126L0.14,-0.618C0.14,-0.633 0.143,-0.64 0.154,-0.64C0.165,-0.64 0.169,-0.632 0.169,-0.618L0.169,-0.126Z" style="fill:rgb(255,0,70);fill-rule:nonzero;"/>
                </g>
                <g transform="matrix(216.667,0,0,216.667,4686.17,1334.4)">
                    <path d="M0.111,0.007C0.153,0.007 0.18,-0.021 0.197,-0.047C0.201,-0.038 0.208,-0.011 0.21,-0L0.295,-0L0.295,-0.438L0.149,-0.438L0.149,-0.341L0.175,-0.341L0.175,-0.119C0.175,-0.104 0.168,-0.096 0.157,-0.096C0.145,-0.096 0.139,-0.104 0.139,-0.119L0.139,-0.627C0.139,-0.639 0.142,-0.646 0.153,-0.646C0.165,-0.646 0.168,-0.639 0.168,-0.627L0.168,-0.465L0.29,-0.465L0.29,-0.632C0.29,-0.692 0.262,-0.751 0.16,-0.751L0.143,-0.751C0.043,-0.751 0.009,-0.692 0.009,-0.622L0.009,-0.116C0.009,-0.05 0.041,0.007 0.108,0.007L0.111,0.007Z" style="fill:rgb(255,0,70);fill-rule:nonzero;"/>
                </g>
                <g transform="matrix(216.667,0,0,216.667,4762.87,1334.4)">
                    <path d="M0.136,-0.65L0.147,-0.65C0.158,-0.65 0.16,-0.645 0.16,-0.633L0.16,-0.45C0.16,-0.439 0.156,-0.433 0.146,-0.433L0.136,-0.433L0.136,-0.65ZM0.136,-0.327L0.146,-0.327C0.158,-0.327 0.16,-0.32 0.16,-0.31L0.16,-0.031C0.16,-0.018 0.163,-0.006 0.168,-0L0.293,-0L0.293,-0.003C0.289,-0.01 0.287,-0.022 0.287,-0.036L0.287,-0.331C0.287,-0.369 0.261,-0.391 0.24,-0.4C0.261,-0.409 0.285,-0.43 0.285,-0.48L0.285,-0.655C0.285,-0.716 0.25,-0.744 0.206,-0.744L0.009,-0.744L0.009,-0L0.136,-0L0.136,-0.327Z" style="fill:rgb(255,0,70);fill-rule:nonzero;"/>
                </g>
                <g transform="matrix(216.667,0,0,216.667,4838.05,1334.4)">
                    <path d="M0.151,-0.243L0.121,-0.243L0.136,-0.526L0.151,-0.243ZM0.164,-0L0.287,-0L0.22,-0.744L0.06,-0.744L-0.002,-0L0.107,-0L0.114,-0.134L0.157,-0.134L0.164,-0Z" style="fill:rgb(255,0,70);fill-rule:nonzero;"/>
                </g>
                <g transform="matrix(216.667,0,0,216.667,4910.64,1334.4)">
                    <path d="M0.195,-0.308C0.244,-0.308 0.284,-0.341 0.284,-0.407L0.284,-0.647C0.284,-0.716 0.246,-0.744 0.193,-0.744L0.009,-0.744L0.009,-0L0.135,-0L0.135,-0.308L0.195,-0.308ZM0.135,-0.648L0.144,-0.648C0.157,-0.648 0.159,-0.641 0.159,-0.629L0.159,-0.428C0.159,-0.414 0.155,-0.409 0.144,-0.409L0.135,-0.409L0.135,-0.648Z" style="fill:rgb(255,0,70);fill-rule:nonzero;"/>
                </g>
                <g transform="matrix(216.667,0,0,216.667,4984.52,1334.4)">
                    <path d="M0.009,-0L0.136,-0L0.136,-0.324L0.163,-0.324L0.163,-0L0.289,-0L0.289,-0.744L0.163,-0.744L0.163,-0.455L0.136,-0.455L0.136,-0.744L0.009,-0.744L0.009,-0Z" style="fill:rgb(255,0,70);fill-rule:nonzero;"/>
                </g>
                <g transform="matrix(216.667,0,0,216.667,5059.92,1334.4)">
                    <path d="M0.079,-0L0.205,-0L0.205,-0.293L0.28,-0.744L0.167,-0.744L0.145,-0.487L0.123,-0.744L-0.003,-0.744L0.079,-0.293L0.079,-0Z" style="fill:rgb(255,0,70);fill-rule:nonzero;"/>
                </g>
            </g>
            <g transform="matrix(1,0,0,1,-3378.45,40.3141)">
                <g transform="matrix(216.667,0,0,216.667,3728.94,1334.4)">
                    <path d="M0.007,-0.321L0.007,-0.103C0.007,-0.042 0.036,0.007 0.117,0.007L0.151,0.007C0.237,0.007 0.273,-0.042 0.273,-0.107L0.273,-0.744L0.144,-0.744L0.144,-0.114C0.144,-0.105 0.141,-0.101 0.134,-0.101L0.133,-0.101C0.126,-0.101 0.122,-0.105 0.122,-0.114L0.122,-0.321L0.007,-0.321Z" style="fill:rgb(9,255,0);fill-rule:nonzero;"/>
                </g>
                <g transform="matrix(216.667,0,0,216.667,3800.87,1334.4)">
                    <path d="M0.299,-0.604C0.299,-0.693 0.258,-0.751 0.164,-0.751L0.144,-0.751C0.05,-0.751 0.009,-0.695 0.009,-0.604L0.009,-0.137C0.009,-0.046 0.057,0.007 0.144,0.007L0.165,0.007C0.247,0.007 0.299,-0.044 0.299,-0.137L0.299,-0.604ZM0.169,-0.126C0.169,-0.113 0.164,-0.106 0.154,-0.106C0.144,-0.106 0.14,-0.113 0.14,-0.126L0.14,-0.618C0.14,-0.633 0.143,-0.64 0.154,-0.64C0.165,-0.64 0.169,-0.632 0.169,-0.618L0.169,-0.126Z" style="fill:rgb(9,255,0);fill-rule:nonzero;"/>
                </g>
                <g transform="matrix(216.667,0,0,216.667,3878.44,1334.4)">
                    <path d="M0.009,-0.744L0.009,-0L0.115,-0L0.114,-0.446L0.173,-0L0.29,-0L0.29,-0.744L0.185,-0.744L0.186,-0.341L0.137,-0.744L0.009,-0.744Z" style="fill:rgb(9,255,0);fill-rule:nonzero;"/>
                </g>
                <g transform="matrix(216.667,0,0,216.667,3983.95,1334.4)">
                    <path d="M0.111,0.007C0.153,0.007 0.18,-0.021 0.197,-0.047C0.201,-0.038 0.208,-0.011 0.21,-0L0.295,-0L0.295,-0.438L0.149,-0.438L0.149,-0.341L0.175,-0.341L0.175,-0.119C0.175,-0.104 0.168,-0.096 0.157,-0.096C0.145,-0.096 0.139,-0.104 0.139,-0.119L0.139,-0.627C0.139,-0.639 0.142,-0.646 0.153,-0.646C0.165,-0.646 0.168,-0.639 0.168,-0.627L0.168,-0.465L0.29,-0.465L0.29,-0.632C0.29,-0.692 0.262,-0.751 0.16,-0.751L0.143,-0.751C0.043,-0.751 0.009,-0.692 0.009,-0.622L0.009,-0.116C0.009,-0.05 0.041,0.007 0.108,0.007L0.111,0.007Z" style="fill:rgb(9,255,0);fill-rule:nonzero;"/>
                </g>
                <g transform="matrix(216.667,0,0,216.667,4060.65,1334.4)">
                    <path d="M0.299,-0.604C0.299,-0.693 0.258,-0.751 0.164,-0.751L0.144,-0.751C0.05,-0.751 0.009,-0.695 0.009,-0.604L0.009,-0.137C0.009,-0.046 0.057,0.007 0.144,0.007L0.165,0.007C0.247,0.007 0.299,-0.044 0.299,-0.137L0.299,-0.604ZM0.169,-0.126C0.169,-0.113 0.164,-0.106 0.154,-0.106C0.144,-0.106 0.14,-0.113 0.14,-0.126L0.14,-0.618C0.14,-0.633 0.143,-0.64 0.154,-0.64C0.165,-0.64 0.169,-0.632 0.169,-0.618L0.169,-0.126Z" style="fill:rgb(9,255,0);fill-rule:nonzero;"/>
                </g>
                <g transform="matrix(216.667,0,0,216.667,4138.22,1334.4)">
                    <path d="M0.299,-0.604C0.299,-0.693 0.258,-0.751 0.164,-0.751L0.144,-0.751C0.05,-0.751 0.009,-0.695 0.009,-0.604L0.009,-0.137C0.009,-0.046 0.057,0.007 0.144,0.007L0.165,0.007C0.247,0.007 0.299,-0.044 0.299,-0.137L0.299,-0.604ZM0.169,-0.126C0.169,-0.113 0.164,-0.106 0.154,-0.106C0.144,-0.106 0.14,-0.113 0.14,-0.126L0.14,-0.618C0.14,-0.633 0.143,-0.64 0.154,-0.64C0.165,-0.64 0.169,-0.632 0.169,-0.618L0.169,-0.126Z" style="fill:rgb(9,255,0);fill-rule:nonzero;"/>
                </g>
                <g transform="matrix(216.667,0,0,216.667,4215.79,1334.4)">
                    <path d="M0.009,-0L0.192,-0C0.247,-0 0.288,-0.035 0.288,-0.113L0.288,-0.637C0.288,-0.716 0.245,-0.744 0.19,-0.744L0.009,-0.744L0.009,-0ZM0.133,-0.642L0.145,-0.642C0.157,-0.642 0.16,-0.634 0.16,-0.619L0.16,-0.13C0.16,-0.113 0.157,-0.105 0.145,-0.105L0.133,-0.105L0.133,-0.642Z" style="fill:rgb(9,255,0);fill-rule:nonzero;"/>
                </g>
                <g transform="matrix(216.667,0,0,216.667,4318.7,1334.4)">
                    <path d="M0.195,-0.308C0.244,-0.308 0.284,-0.341 0.284,-0.407L0.284,-0.647C0.284,-0.716 0.246,-0.744 0.193,-0.744L0.009,-0.744L0.009,-0L0.135,-0L0.135,-0.308L0.195,-0.308ZM0.135,-0.648L0.144,-0.648C0.157,-0.648 0.159,-0.641 0.159,-0.629L0.159,-0.428C0.159,-0.414 0.155,-0.409 0.144,-0.409L0.135,-0.409L0.135,-0.648Z" style="fill:rgb(9,255,0);fill-rule:nonzero;"/>
                </g>
                <g transform="matrix(216.667,0,0,216.667,4392.59,1334.4)">
                    <path d="M0.009,-0L0.136,-0L0.136,-0.324L0.163,-0.324L0.163,-0L0.289,-0L0.289,-0.744L0.163,-0.744L0.163,-0.455L0.136,-0.455L0.136,-0.744L0.009,-0.744L0.009,-0Z" style="fill:rgb(9,255,0);fill-rule:nonzero;"/>
                </g>
                <g transform="matrix(216.667,0,0,216.667,4467.99,1334.4)">
                    <path d="M0.299,-0.604C0.299,-0.693 0.258,-0.751 0.164,-0.751L0.144,-0.751C0.05,-0.751 0.009,-0.695 0.009,-0.604L0.009,-0.137C0.009,-0.046 0.057,0.007 0.144,0.007L0.165,0.007C0.247,0.007 0.299,-0.044 0.299,-0.137L0.299,-0.604ZM0.169,-0.126C0.169,-0.113 0.164,-0.106 0.154,-0.106C0.144,-0.106 0.14,-0.113 0.14,-0.126L0.14,-0.618C0.14,-0.633 0.143,-0.64 0.154,-0.64C0.165,-0.64 0.169,-0.632 0.169,-0.618L0.169,-0.126Z" style="fill:rgb(9,255,0);fill-rule:nonzero;"/>
                </g>
                <g transform="matrix(216.667,0,0,216.667,4544.25,1334.4)">
                    <path d="M0.064,-0L0.189,-0L0.189,-0.63L0.246,-0.63L0.246,-0.744L0.007,-0.744L0.007,-0.63L0.064,-0.63L0.064,-0Z" style="fill:rgb(9,255,0);fill-rule:nonzero;"/>
                </g>
                <g transform="matrix(216.667,0,0,216.667,4608.6,1334.4)">
                    <path d="M0.299,-0.604C0.299,-0.693 0.258,-0.751 0.164,-0.751L0.144,-0.751C0.05,-0.751 0.009,-0.695 0.009,-0.604L0.009,-0.137C0.009,-0.046 0.057,0.007 0.144,0.007L0.165,0.007C0.247,0.007 0.299,-0.044 0.299,-0.137L0.299,-0.604ZM0.169,-0.126C0.169,-0.113 0.164,-0.106 0.154,-0.106C0.144,-0.106 0.14,-0.113 0.14,-0.126L0.14,-0.618C0.14,-0.633 0.143,-0.64 0.154,-0.64C0.165,-0.64 0.169,-0.632 0.169,-0.618L0.169,-0.126Z" style="fill:rgb(9,255,0);fill-rule:nonzero;"/>
                </g>
                <g transform="matrix(216.667,0,0,216.667,4686.17,1334.4)">
                    <path d="M0.111,0.007C0.153,0.007 0.18,-0.021 0.197,-0.047C0.201,-0.038 0.208,-0.011 0.21,-0L0.295,-0L0.295,-0.438L0.149,-0.438L0.149,-0.341L0.175,-0.341L0.175,-0.119C0.175,-0.104 0.168,-0.096 0.157,-0.096C0.145,-0.096 0.139,-0.104 0.139,-0.119L0.139,-0.627C0.139,-0.639 0.142,-0.646 0.153,-0.646C0.165,-0.646 0.168,-0.639 0.168,-0.627L0.168,-0.465L0.29,-0.465L0.29,-0.632C0.29,-0.692 0.262,-0.751 0.16,-0.751L0.143,-0.751C0.043,-0.751 0.009,-0.692 0.009,-0.622L0.009,-0.116C0.009,-0.05 0.041,0.007 0.108,0.007L0.111,0.007Z" style="fill:rgb(9,255,0);fill-rule:nonzero;"/>
                </g>
                <g transform="matrix(216.667,0,0,216.667,4762.87,1334.4)">
                    <path d="M0.136,-0.65L0.147,-0.65C0.158,-0.65 0.16,-0.645 0.16,-0.633L0.16,-0.45C0.16,-0.439 0.156,-0.433 0.146,-0.433L0.136,-0.433L0.136,-0.65ZM0.136,-0.327L0.146,-0.327C0.158,-0.327 0.16,-0.32 0.16,-0.31L0.16,-0.031C0.16,-0.018 0.163,-0.006 0.168,-0L0.293,-0L0.293,-0.003C0.289,-0.01 0.287,-0.022 0.287,-0.036L0.287,-0.331C0.287,-0.369 0.261,-0.391 0.24,-0.4C0.261,-0.409 0.285,-0.43 0.285,-0.48L0.285,-0.655C0.285,-0.716 0.25,-0.744 0.206,-0.744L0.009,-0.744L0.009,-0L0.136,-0L0.136,-0.327Z" style="fill:rgb(9,255,0);fill-rule:nonzero;"/>
                </g>
                <g transform="matrix(216.667,0,0,216.667,4838.05,1334.4)">
                    <path d="M0.151,-0.243L0.121,-0.243L0.136,-0.526L0.151,-0.243ZM0.164,-0L0.287,-0L0.22,-0.744L0.06,-0.744L-0.002,-0L0.107,-0L0.114,-0.134L0.157,-0.134L0.164,-0Z" style="fill:rgb(9,255,0);fill-rule:nonzero;"/>
                </g>
                <g transform="matrix(216.667,0,0,216.667,4910.64,1334.4)">
                    <path d="M0.195,-0.308C0.244,-0.308 0.284,-0.341 0.284,-0.407L0.284,-0.647C0.284,-0.716 0.246,-0.744 0.193,-0.744L0.009,-0.744L0.009,-0L0.135,-0L0.135,-0.308L0.195,-0.308ZM0.135,-0.648L0.144,-0.648C0.157,-0.648 0.159,-0.641 0.159,-0.629L0.159,-0.428C0.159,-0.414 0.155,-0.409 0.144,-0.409L0.135,-0.409L0.135,-0.648Z" style="fill:rgb(9,255,0);fill-rule:nonzero;"/>
                </g>
                <g transform="matrix(216.667,0,0,216.667,4984.52,1334.4)">
                    <path d="M0.009,-0L0.136,-0L0.136,-0.324L0.163,-0.324L0.163,-0L0.289,-0L0.289,-0.744L0.163,-0.744L0.163,-0.455L0.136,-0.455L0.136,-0.744L0.009,-0.744L0.009,-0Z" style="fill:rgb(9,255,0);fill-rule:nonzero;"/>
                </g>
                <g transform="matrix(216.667,0,0,216.667,5059.92,1334.4)">
                    <path d="M0.079,-0L0.205,-0L0.205,-0.293L0.28,-0.744L0.167,-0.744L0.145,-0.487L0.123,-0.744L-0.003,-0.744L0.079,-0.293L0.079,-0Z" style="fill:rgb(9,255,0);fill-rule:nonzero;"/>
                </g>
            </g>
            <g transform="matrix(1,0,0,1,-3373.59,40.0807)">
                <g transform="matrix(216.667,0,0,216.667,3728.94,1334.4)">
                    <path d="M0.007,-0.321L0.007,-0.103C0.007,-0.042 0.036,0.007 0.117,0.007L0.151,0.007C0.237,0.007 0.273,-0.042 0.273,-0.107L0.273,-0.744L0.144,-0.744L0.144,-0.114C0.144,-0.105 0.141,-0.101 0.134,-0.101L0.133,-0.101C0.126,-0.101 0.122,-0.105 0.122,-0.114L0.122,-0.321L0.007,-0.321Z" style="fill:rgb(0,18,255);fill-rule:nonzero;"/>
                </g>
                <g transform="matrix(216.667,0,0,216.667,3800.87,1334.4)">
                    <path d="M0.299,-0.604C0.299,-0.693 0.258,-0.751 0.164,-0.751L0.144,-0.751C0.05,-0.751 0.009,-0.695 0.009,-0.604L0.009,-0.137C0.009,-0.046 0.057,0.007 0.144,0.007L0.165,0.007C0.247,0.007 0.299,-0.044 0.299,-0.137L0.299,-0.604ZM0.169,-0.126C0.169,-0.113 0.164,-0.106 0.154,-0.106C0.144,-0.106 0.14,-0.113 0.14,-0.126L0.14,-0.618C0.14,-0.633 0.143,-0.64 0.154,-0.64C0.165,-0.64 0.169,-0.632 0.169,-0.618L0.169,-0.126Z" style="fill:rgb(0,18,255);fill-rule:nonzero;"/>
                </g>
                <g transform="matrix(216.667,0,0,216.667,3878.44,1334.4)">
                    <path d="M0.009,-0.744L0.009,-0L0.115,-0L0.114,-0.446L0.173,-0L0.29,-0L0.29,-0.744L0.185,-0.744L0.186,-0.341L0.137,-0.744L0.009,-0.744Z" style="fill:rgb(0,18,255);fill-rule:nonzero;"/>
                </g>
                <g transform="matrix(216.667,0,0,216.667,3983.95,1334.4)">
                    <path d="M0.111,0.007C0.153,0.007 0.18,-0.021 0.197,-0.047C0.201,-0.038 0.208,-0.011 0.21,-0L0.295,-0L0.295,-0.438L0.149,-0.438L0.149,-0.341L0.175,-0.341L0.175,-0.119C0.175,-0.104 0.168,-0.096 0.157,-0.096C0.145,-0.096 0.139,-0.104 0.139,-0.119L0.139,-0.627C0.139,-0.639 0.142,-0.646 0.153,-0.646C0.165,-0.646 0.168,-0.639 0.168,-0.627L0.168,-0.465L0.29,-0.465L0.29,-0.632C0.29,-0.692 0.262,-0.751 0.16,-0.751L0.143,-0.751C0.043,-0.751 0.009,-0.692 0.009,-0.622L0.009,-0.116C0.009,-0.05 0.041,0.007 0.108,0.007L0.111,0.007Z" style="fill:rgb(0,18,255);fill-rule:nonzero;"/>
                </g>
                <g transform="matrix(216.667,0,0,216.667,4060.65,1334.4)">
                    <path d="M0.299,-0.604C0.299,-0.693 0.258,-0.751 0.164,-0.751L0.144,-0.751C0.05,-0.751 0.009,-0.695 0.009,-0.604L0.009,-0.137C0.009,-0.046 0.057,0.007 0.144,0.007L0.165,0.007C0.247,0.007 0.299,-0.044 0.299,-0.137L0.299,-0.604ZM0.169,-0.126C0.169,-0.113 0.164,-0.106 0.154,-0.106C0.144,-0.106 0.14,-0.113 0.14,-0.126L0.14,-0.618C0.14,-0.633 0.143,-0.64 0.154,-0.64C0.165,-0.64 0.169,-0.632 0.169,-0.618L0.169,-0.126Z" style="fill:rgb(0,18,255);fill-rule:nonzero;"/>
                </g>
                <g transform="matrix(216.667,0,0,216.667,4138.22,1334.4)">
                    <path d="M0.299,-0.604C0.299,-0.693 0.258,-0.751 0.164,-0.751L0.144,-0.751C0.05,-0.751 0.009,-0.695 0.009,-0.604L0.009,-0.137C0.009,-0.046 0.057,0.007 0.144,0.007L0.165,0.007C0.247,0.007 0.299,-0.044 0.299,-0.137L0.299,-0.604ZM0.169,-0.126C0.169,-0.113 0.164,-0.106 0.154,-0.106C0.144,-0.106 0.14,-0.113 0.14,-0.126L0.14,-0.618C0.14,-0.633 0.143,-0.64 0.154,-0.64C0.165,-0.64 0.169,-0.632 0.169,-0.618L0.169,-0.126Z" style="fill:rgb(0,18,255);fill-rule:nonzero;"/>
                </g>
                <g transform="matrix(216.667,0,0,216.667,4215.79,1334.4)">
                    <path d="M0.009,-0L0.192,-0C0.247,-0 0.288,-0.035 0.288,-0.113L0.288,-0.637C0.288,-0.716 0.245,-0.744 0.19,-0.744L0.009,-0.744L0.009,-0ZM0.133,-0.642L0.145,-0.642C0.157,-0.642 0.16,-0.634 0.16,-0.619L0.16,-0.13C0.16,-0.113 0.157,-0.105 0.145,-0.105L0.133,-0.105L0.133,-0.642Z" style="fill:rgb(0,18,255);fill-rule:nonzero;"/>
                </g>
                <g transform="matrix(216.667,0,0,216.667,4318.7,1334.4)">
                    <path d="M0.195,-0.308C0.244,-0.308 0.284,-0.341 0.284,-0.407L0.284,-0.647C0.284,-0.716 0.246,-0.744 0.193,-0.744L0.009,-0.744L0.009,-0L0.135,-0L0.135,-0.308L0.195,-0.308ZM0.135,-0.648L0.144,-0.648C0.157,-0.648 0.159,-0.641 0.159,-0.629L0.159,-0.428C0.159,-0.414 0.155,-0.409 0.144,-0.409L0.135,-0.409L0.135,-0.648Z" style="fill:rgb(0,18,255);fill-rule:nonzero;"/>
                </g>
                <g transform="matrix(216.667,0,0,216.667,4392.59,1334.4)">
                    <path d="M0.009,-0L0.136,-0L0.136,-0.324L0.163,-0.324L0.163,-0L0.289,-0L0.289,-0.744L0.163,-0.744L0.163,-0.455L0.136,-0.455L0.136,-0.744L0.009,-0.744L0.009,-0Z" style="fill:rgb(0,18,255);fill-rule:nonzero;"/>
                </g>
                <g transform="matrix(216.667,0,0,216.667,4467.99,1334.4)">
                    <path d="M0.299,-0.604C0.299,-0.693 0.258,-0.751 0.164,-0.751L0.144,-0.751C0.05,-0.751 0.009,-0.695 0.009,-0.604L0.009,-0.137C0.009,-0.046 0.057,0.007 0.144,0.007L0.165,0.007C0.247,0.007 0.299,-0.044 0.299,-0.137L0.299,-0.604ZM0.169,-0.126C0.169,-0.113 0.164,-0.106 0.154,-0.106C0.144,-0.106 0.14,-0.113 0.14,-0.126L0.14,-0.618C0.14,-0.633 0.143,-0.64 0.154,-0.64C0.165,-0.64 0.169,-0.632 0.169,-0.618L0.169,-0.126Z" style="fill:rgb(0,18,255);fill-rule:nonzero;"/>
                </g>
                <g transform="matrix(216.667,0,0,216.667,4544.25,1334.4)">
                    <path d="M0.064,-0L0.189,-0L0.189,-0.63L0.246,-0.63L0.246,-0.744L0.007,-0.744L0.007,-0.63L0.064,-0.63L0.064,-0Z" style="fill:rgb(0,18,255);fill-rule:nonzero;"/>
                </g>
                <g transform="matrix(216.667,0,0,216.667,4608.6,1334.4)">
                    <path d="M0.299,-0.604C0.299,-0.693 0.258,-0.751 0.164,-0.751L0.144,-0.751C0.05,-0.751 0.009,-0.695 0.009,-0.604L0.009,-0.137C0.009,-0.046 0.057,0.007 0.144,0.007L0.165,0.007C0.247,0.007 0.299,-0.044 0.299,-0.137L0.299,-0.604ZM0.169,-0.126C0.169,-0.113 0.164,-0.106 0.154,-0.106C0.144,-0.106 0.14,-0.113 0.14,-0.126L0.14,-0.618C0.14,-0.633 0.143,-0.64 0.154,-0.64C0.165,-0.64 0.169,-0.632 0.169,-0.618L0.169,-0.126Z" style="fill:rgb(0,18,255);fill-rule:nonzero;"/>
                </g>
                <g transform="matrix(216.667,0,0,216.667,4686.17,1334.4)">
                    <path d="M0.111,0.007C0.153,0.007 0.18,-0.021 0.197,-0.047C0.201,-0.038 0.208,-0.011 0.21,-0L0.295,-0L0.295,-0.438L0.149,-0.438L0.149,-0.341L0.175,-0.341L0.175,-0.119C0.175,-0.104 0.168,-0.096 0.157,-0.096C0.145,-0.096 0.139,-0.104 0.139,-0.119L0.139,-0.627C0.139,-0.639 0.142,-0.646 0.153,-0.646C0.165,-0.646 0.168,-0.639 0.168,-0.627L0.168,-0.465L0.29,-0.465L0.29,-0.632C0.29,-0.692 0.262,-0.751 0.16,-0.751L0.143,-0.751C0.043,-0.751 0.009,-0.692 0.009,-0.622L0.009,-0.116C0.009,-0.05 0.041,0.007 0.108,0.007L0.111,0.007Z" style="fill:rgb(0,18,255);fill-rule:nonzero;"/>
                </g>
                <g transform="matrix(216.667,0,0,216.667,4762.87,1334.4)">
                    <path d="M0.136,-0.65L0.147,-0.65C0.158,-0.65 0.16,-0.645 0.16,-0.633L0.16,-0.45C0.16,-0.439 0.156,-0.433 0.146,-0.433L0.136,-0.433L0.136,-0.65ZM0.136,-0.327L0.146,-0.327C0.158,-0.327 0.16,-0.32 0.16,-0.31L0.16,-0.031C0.16,-0.018 0.163,-0.006 0.168,-0L0.293,-0L0.293,-0.003C0.289,-0.01 0.287,-0.022 0.287,-0.036L0.287,-0.331C0.287,-0.369 0.261,-0.391 0.24,-0.4C0.261,-0.409 0.285,-0.43 0.285,-0.48L0.285,-0.655C0.285,-0.716 0.25,-0.744 0.206,-0.744L0.009,-0.744L0.009,-0L0.136,-0L0.136,-0.327Z" style="fill:rgb(0,18,255);fill-rule:nonzero;"/>
                </g>
                <g transform="matrix(216.667,0,0,216.667,4838.05,1334.4)">
                    <path d="M0.151,-0.243L0.121,-0.243L0.136,-0.526L0.151,-0.243ZM0.164,-0L0.287,-0L0.22,-0.744L0.06,-0.744L-0.002,-0L0.107,-0L0.114,-0.134L0.157,-0.134L0.164,-0Z" style="fill:rgb(0,18,255);fill-rule:nonzero;"/>
                </g>
                <g transform="matrix(216.667,0,0,216.667,4910.64,1334.4)">
                    <path d="M0.195,-0.308C0.244,-0.308 0.284,-0.341 0.284,-0.407L0.284,-0.647C0.284,-0.716 0.246,-0.744 0.193,-0.744L0.009,-0.744L0.009,-0L0.135,-0L0.135,-0.308L0.195,-0.308ZM0.135,-0.648L0.144,-0.648C0.157,-0.648 0.159,-0.641 0.159,-0.629L0.159,-0.428C0.159,-0.414 0.155,-0.409 0.144,-0.409L0.135,-0.409L0.135,-0.648Z" style="fill:rgb(0,18,255);fill-rule:nonzero;"/>
                </g>
                <g transform="matrix(216.667,0,0,216.667,4984.52,1334.4)">
                    <path d="M0.009,-0L0.136,-0L0.136,-0.324L0.163,-0.324L0.163,-0L0.289,-0L0.289,-0.744L0.163,-0.744L0.163,-0.455L0.136,-0.455L0.136,-0.744L0.009,-0.744L0.009,-0Z" style="fill:rgb(0,18,255);fill-rule:nonzero;"/>
                </g>
                <g transform="matrix(216.667,0,0,216.667,5059.92,1334.4)">
                    <path d="M0.079,-0L0.205,-0L0.205,-0.293L0.28,-0.744L0.167,-0.744L0.145,-0.487L0.123,-0.744L-0.003,-0.744L0.079,-0.293L0.079,-0Z" style="fill:rgb(0,18,255);fill-rule:nonzero;"/>
                </g>
            </g>
        </g>
    </g>
</svg>
