<?xml version="1.0" encoding="UTF-8" standalone="no"?>
<!DOCTYPE svg PUBLIC "-//W3C//DTD SVG 1.1//EN" "http://www.w3.org/Graphics/SVG/1.1/DTD/svg11.dtd">
<svg width="100%" height="100%" viewBox="0 0 3262 1143" version="1.1" xmlns="http://www.w3.org/2000/svg" xmlns:xlink="http://www.w3.org/1999/xlink" xml:space="preserve" xmlns:serif="http://www.serif.com/" style="fill-rule:evenodd;clip-rule:evenodd;stroke-linecap:round;stroke-linejoin:round;stroke-miterlimit:1.5;">
    <g id="Logo" transform="matrix(1.3525,0,0,1.01914,-102.185,-528.789)">
        <rect x="75.553" y="518.857" width="2411.54" height="1120.6" style="fill:none;"/>
        <g id="Frame" transform="matrix(0.983083,0,0,0.894495,33.2352,41.9321)">
            <rect x="141.421" y="665.934" width="2256.29" height="885.603" style="fill:rgb(0,0,255);fill-opacity:0;stroke:rgb(0,13,255);stroke-width:16.45px;"/>
        </g>
        <g id="Baseline" transform="matrix(0.739374,0,0,0.692153,75.5531,813.999)">
            <rect x="130.801" y="889.651" width="3000" height="131.372" style="fill:rgb(0,0,255);stroke:rgb(0,13,255);stroke-width:21.67px;"/>
        </g>
        <g transform="matrix(0.739374,0,0,0.981218,-4.66663,-0.302229)">
            <g transform="matrix(300,0,0,300,350.476,997.886)">
                <path d="M0.295,0.014C0.227,0.014 0.173,-0.005 0.133,-0.044C0.093,-0.083 0.073,-0.138 0.073,-0.21L0.073,-0.264L0.157,-0.264L0.157,-0.21C0.157,-0.166 0.168,-0.131 0.191,-0.104C0.214,-0.077 0.248,-0.064 0.295,-0.064C0.342,-0.064 0.374,-0.077 0.393,-0.104C0.412,-0.131 0.421,-0.166 0.421,-0.21L0.421,-0.622L0.349,-0.622L0.349,-0.7L0.565,-0.7L0.565,-0.622L0.505,-0.622L0.505,-0.21C0.505,-0.138 0.487,-0.083 0.451,-0.044C0.415,-0.005 0.363,0.014 0.295,0.014Z" style="fill:rgb(0,0,255);fill-rule:nonzero;"/>
            </g>
            <g transform="matrix(300,0,0,300,534.076,997.886)">
                <path d="M0.306,0.014C0.262,0.014 0.221,0.004 0.184,-0.016C0.146,-0.036 0.115,-0.065 0.092,-0.103C0.069,-0.141 0.057,-0.187 0.057,-0.242L0.057,-0.254C0.057,-0.308 0.069,-0.354 0.092,-0.393C0.115,-0.431 0.146,-0.46 0.184,-0.48C0.221,-0.5 0.262,-0.51 0.306,-0.51C0.35,-0.51 0.391,-0.5 0.429,-0.48C0.466,-0.46 0.497,-0.431 0.52,-0.393C0.543,-0.354 0.555,-0.308 0.555,-0.254L0.555,-0.242C0.555,-0.187 0.543,-0.141 0.52,-0.103C0.497,-0.065 0.466,-0.036 0.429,-0.016C0.391,0.004 0.35,0.014 0.306,0.014ZM0.306,-0.06C0.338,-0.06 0.367,-0.067 0.392,-0.082C0.417,-0.097 0.438,-0.118 0.453,-0.145C0.468,-0.172 0.475,-0.205 0.475,-0.242L0.475,-0.254C0.475,-0.29 0.468,-0.322 0.453,-0.349C0.438,-0.376 0.417,-0.398 0.392,-0.413C0.366,-0.428 0.337,-0.436 0.306,-0.436C0.275,-0.436 0.246,-0.428 0.221,-0.413C0.195,-0.398 0.174,-0.376 0.16,-0.349C0.145,-0.322 0.137,-0.29 0.137,-0.254L0.137,-0.242C0.137,-0.205 0.145,-0.172 0.16,-0.145C0.174,-0.118 0.195,-0.097 0.221,-0.082C0.246,-0.067 0.275,-0.06 0.306,-0.06Z" style="fill:rgb(0,0,255);fill-rule:nonzero;"/>
            </g>
            <g transform="matrix(300,0,0,300,717.676,997.886)">
                <path d="M0.087,-0L0.087,-0.496L0.165,-0.496L0.165,-0.412L0.177,-0.412C0.208,-0.477 0.261,-0.51 0.337,-0.51C0.394,-0.51 0.44,-0.492 0.474,-0.457C0.508,-0.421 0.525,-0.367 0.525,-0.296L0.525,-0L0.447,-0L0.447,-0.28C0.447,-0.332 0.435,-0.371 0.412,-0.397C0.389,-0.423 0.357,-0.436 0.317,-0.436C0.27,-0.436 0.233,-0.42 0.206,-0.388C0.179,-0.355 0.165,-0.312 0.165,-0.258L0.165,-0L0.087,-0Z" style="fill:rgb(0,0,255);fill-rule:nonzero;"/>
            </g>
            <g transform="matrix(300,0,0,300,1084.88,997.886)">
                <path d="M0.301,0.014C0.226,0.014 0.167,-0.011 0.124,-0.06C0.081,-0.109 0.059,-0.179 0.059,-0.272L0.059,-0.428C0.059,-0.518 0.081,-0.588 0.125,-0.639C0.168,-0.689 0.228,-0.714 0.305,-0.714C0.358,-0.714 0.403,-0.703 0.44,-0.68C0.477,-0.657 0.504,-0.627 0.523,-0.589C0.542,-0.55 0.551,-0.507 0.551,-0.46L0.551,-0.448L0.467,-0.448L0.467,-0.46C0.467,-0.491 0.462,-0.519 0.451,-0.546C0.44,-0.573 0.422,-0.594 0.398,-0.611C0.374,-0.628 0.343,-0.636 0.305,-0.636C0.251,-0.636 0.211,-0.616 0.184,-0.577C0.157,-0.538 0.143,-0.486 0.143,-0.422L0.143,-0.278C0.143,-0.21 0.157,-0.157 0.184,-0.12C0.211,-0.083 0.252,-0.064 0.307,-0.064C0.356,-0.064 0.395,-0.08 0.424,-0.113C0.453,-0.145 0.467,-0.189 0.467,-0.246L0.467,-0.258L0.239,-0.258L0.239,-0.336L0.551,-0.336L0.551,-0L0.473,-0L0.473,-0.084L0.461,-0.084C0.45,-0.055 0.431,-0.032 0.402,-0.014C0.373,0.005 0.339,0.014 0.301,0.014Z" style="fill:rgb(0,0,255);fill-rule:nonzero;"/>
            </g>
            <g transform="matrix(300,0,0,300,1268.48,997.886)">
                <path d="M0.306,0.014C0.262,0.014 0.221,0.004 0.184,-0.016C0.146,-0.036 0.115,-0.065 0.092,-0.103C0.069,-0.141 0.057,-0.187 0.057,-0.242L0.057,-0.254C0.057,-0.308 0.069,-0.354 0.092,-0.393C0.115,-0.431 0.146,-0.46 0.184,-0.48C0.221,-0.5 0.262,-0.51 0.306,-0.51C0.35,-0.51 0.391,-0.5 0.429,-0.48C0.466,-0.46 0.497,-0.431 0.52,-0.393C0.543,-0.354 0.555,-0.308 0.555,-0.254L0.555,-0.242C0.555,-0.187 0.543,-0.141 0.52,-0.103C0.497,-0.065 0.466,-0.036 0.429,-0.016C0.391,0.004 0.35,0.014 0.306,0.014ZM0.306,-0.06C0.338,-0.06 0.367,-0.067 0.392,-0.082C0.417,-0.097 0.438,-0.118 0.453,-0.145C0.468,-0.172 0.475,-0.205 0.475,-0.242L0.475,-0.254C0.475,-0.29 0.468,-0.322 0.453,-0.349C0.438,-0.376 0.417,-0.398 0.392,-0.413C0.366,-0.428 0.337,-0.436 0.306,-0.436C0.275,-0.436 0.246,-0.428 0.221,-0.413C0.195,-0.398 0.174,-0.376 0.16,-0.349C0.145,-0.322 0.137,-0.29 0.137,-0.254L0.137,-0.242C0.137,-0.205 0.145,-0.172 0.16,-0.145C0.174,-0.118 0.195,-0.097 0.221,-0.082C0.246,-0.067 0.275,-0.06 0.306,-0.06Z" style="fill:rgb(0,0,255);fill-rule:nonzero;"/>
            </g>
            <g transform="matrix(300,0,0,300,1452.08,997.886)">
                <path d="M0.306,0.014C0.262,0.014 0.221,0.004 0.184,-0.016C0.146,-0.036 0.115,-0.065 0.092,-0.103C0.069,-0.141 0.057,-0.187 0.057,-0.242L0.057,-0.254C0.057,-0.308 0.069,-0.354 0.092,-0.393C0.115,-0.431 0.146,-0.46 0.184,-0.48C0.221,-0.5 0.262,-0.51 0.306,-0.51C0.35,-0.51 0.391,-0.5 0.429,-0.48C0.466,-0.46 0.497,-0.431 0.52,-0.393C0.543,-0.354 0.555,-0.308 0.555,-0.254L0.555,-0.242C0.555,-0.187 0.543,-0.141 0.52,-0.103C0.497,-0.065 0.466,-0.036 0.429,-0.016C0.391,0.004 0.35,0.014 0.306,0.014ZM0.306,-0.06C0.338,-0.06 0.367,-0.067 0.392,-0.082C0.417,-0.097 0.438,-0.118 0.453,-0.145C0.468,-0.172 0.475,-0.205 0.475,-0.242L0.475,-0.254C0.475,-0.29 0.468,-0.322 0.453,-0.349C0.438,-0.376 0.417,-0.398 0.392,-0.413C0.366,-0.428 0.337,-0.436 0.306,-0.436C0.275,-0.436 0.246,-0.428 0.221,-0.413C0.195,-0.398 0.174,-0.376 0.16,-0.349C0.145,-0.322 0.137,-0.29 0.137,-0.254L0.137,-0.242C0.137,-0.205 0.145,-0.172 0.16,-0.145C0.174,-0.118 0.195,-0.097 0.221,-0.082C0.246,-0.067 0.275,-0.06 0.306,-0.06Z" style="fill:rgb(0,0,255);fill-rule:nonzero;"/>
            </g>
            <g transform="matrix(300,0,0,300,1635.68,997.886)">
                <path d="M0.297,0.014C0.253,0.014 0.213,0.004 0.177,-0.016C0.141,-0.035 0.112,-0.064 0.091,-0.102C0.07,-0.14 0.059,-0.186 0.059,-0.24L0.059,-0.256C0.059,-0.31 0.07,-0.356 0.092,-0.394C0.113,-0.431 0.142,-0.46 0.178,-0.48C0.213,-0.5 0.252,-0.51 0.295,-0.51C0.329,-0.51 0.361,-0.503 0.391,-0.488C0.42,-0.472 0.443,-0.449 0.459,-0.418L0.471,-0.418L0.471,-0.7L0.549,-0.7L0.549,-0L0.471,-0L0.471,-0.076L0.459,-0.076C0.443,-0.045 0.42,-0.023 0.389,-0.008C0.358,0.007 0.327,0.014 0.297,0.014ZM0.305,-0.06C0.336,-0.06 0.365,-0.068 0.39,-0.083C0.415,-0.097 0.434,-0.119 0.449,-0.146C0.464,-0.173 0.471,-0.205 0.471,-0.242L0.471,-0.254C0.471,-0.289 0.464,-0.321 0.449,-0.348C0.434,-0.375 0.413,-0.397 0.389,-0.413C0.364,-0.428 0.336,-0.436 0.305,-0.436C0.274,-0.436 0.246,-0.429 0.221,-0.414C0.196,-0.399 0.176,-0.378 0.161,-0.351C0.146,-0.324 0.139,-0.292 0.139,-0.256L0.139,-0.24C0.139,-0.203 0.146,-0.171 0.161,-0.145C0.175,-0.118 0.195,-0.097 0.22,-0.082C0.245,-0.067 0.274,-0.06 0.305,-0.06Z" style="fill:rgb(0,0,255);fill-rule:nonzero;"/>
            </g>
            <g transform="matrix(300,0,0,300,350.476,1264.55)">
                <path d="M0.085,-0L0.085,-0.7L0.335,-0.7C0.383,-0.7 0.423,-0.691 0.455,-0.674C0.486,-0.656 0.51,-0.633 0.526,-0.604C0.541,-0.575 0.549,-0.544 0.549,-0.51L0.549,-0.48C0.549,-0.446 0.541,-0.414 0.525,-0.385C0.509,-0.356 0.485,-0.332 0.454,-0.315C0.422,-0.297 0.382,-0.288 0.335,-0.288L0.169,-0.288L0.169,-0L0.085,-0ZM0.169,-0.366L0.325,-0.366C0.418,-0.366 0.465,-0.406 0.465,-0.486L0.465,-0.504C0.465,-0.539 0.454,-0.568 0.431,-0.59C0.408,-0.611 0.372,-0.622 0.325,-0.622L0.169,-0.622L0.169,-0.366Z" style="fill:rgb(0,0,255);fill-rule:nonzero;"/>
            </g>
            <g transform="matrix(300,0,0,300,534.076,1264.55)">
                <path d="M0.087,-0L0.087,-0.7L0.165,-0.7L0.165,-0.406L0.177,-0.406C0.192,-0.438 0.214,-0.463 0.242,-0.482C0.269,-0.501 0.303,-0.51 0.343,-0.51C0.397,-0.51 0.441,-0.492 0.475,-0.457C0.508,-0.421 0.525,-0.367 0.525,-0.296L0.525,-0L0.447,-0L0.447,-0.28C0.447,-0.332 0.435,-0.371 0.412,-0.397C0.389,-0.423 0.357,-0.436 0.317,-0.436C0.27,-0.436 0.233,-0.42 0.206,-0.388C0.179,-0.355 0.165,-0.312 0.165,-0.258L0.165,-0L0.087,-0Z" style="fill:rgb(0,0,255);fill-rule:nonzero;"/>
            </g>
            <g transform="matrix(300,0,0,300,717.676,1264.55)">
                <path d="M0.306,0.014C0.262,0.014 0.221,0.004 0.184,-0.016C0.146,-0.036 0.115,-0.065 0.092,-0.103C0.069,-0.141 0.057,-0.187 0.057,-0.242L0.057,-0.254C0.057,-0.308 0.069,-0.354 0.092,-0.393C0.115,-0.431 0.146,-0.46 0.184,-0.48C0.221,-0.5 0.262,-0.51 0.306,-0.51C0.35,-0.51 0.391,-0.5 0.429,-0.48C0.466,-0.46 0.497,-0.431 0.52,-0.393C0.543,-0.354 0.555,-0.308 0.555,-0.254L0.555,-0.242C0.555,-0.187 0.543,-0.141 0.52,-0.103C0.497,-0.065 0.466,-0.036 0.429,-0.016C0.391,0.004 0.35,0.014 0.306,0.014ZM0.306,-0.06C0.338,-0.06 0.367,-0.067 0.392,-0.082C0.417,-0.097 0.438,-0.118 0.453,-0.145C0.468,-0.172 0.475,-0.205 0.475,-0.242L0.475,-0.254C0.475,-0.29 0.468,-0.322 0.453,-0.349C0.438,-0.376 0.417,-0.398 0.392,-0.413C0.366,-0.428 0.337,-0.436 0.306,-0.436C0.275,-0.436 0.246,-0.428 0.221,-0.413C0.195,-0.398 0.174,-0.376 0.16,-0.349C0.145,-0.322 0.137,-0.29 0.137,-0.254L0.137,-0.242C0.137,-0.205 0.145,-0.172 0.16,-0.145C0.174,-0.118 0.195,-0.097 0.221,-0.082C0.246,-0.067 0.275,-0.06 0.306,-0.06Z" style="fill:rgb(0,0,255);fill-rule:nonzero;"/>
            </g>
            <g transform="matrix(300,0,0,300,901.276,1264.55)">
                <path d="M0.303,-0C0.28,-0 0.262,-0.007 0.248,-0.022C0.233,-0.037 0.226,-0.055 0.226,-0.078L0.226,-0.424L0.07,-0.424L0.07,-0.496L0.226,-0.496L0.226,-0.7L0.304,-0.7L0.304,-0.496L0.496,-0.496L0.496,-0.424L0.304,-0.424L0.304,-0.102C0.304,-0.082 0.313,-0.072 0.331,-0.072L0.472,-0.072L0.472,-0L0.303,-0Z" style="fill:rgb(0,0,255);fill-rule:nonzero;"/>
            </g>
            <g transform="matrix(300,0,0,300,1084.88,1264.55)">
                <path d="M0.306,0.014C0.262,0.014 0.221,0.004 0.184,-0.016C0.146,-0.036 0.115,-0.065 0.092,-0.103C0.069,-0.141 0.057,-0.187 0.057,-0.242L0.057,-0.254C0.057,-0.308 0.069,-0.354 0.092,-0.393C0.115,-0.431 0.146,-0.46 0.184,-0.48C0.221,-0.5 0.262,-0.51 0.306,-0.51C0.35,-0.51 0.391,-0.5 0.429,-0.48C0.466,-0.46 0.497,-0.431 0.52,-0.393C0.543,-0.354 0.555,-0.308 0.555,-0.254L0.555,-0.242C0.555,-0.187 0.543,-0.141 0.52,-0.103C0.497,-0.065 0.466,-0.036 0.429,-0.016C0.391,0.004 0.35,0.014 0.306,0.014ZM0.306,-0.06C0.338,-0.06 0.367,-0.067 0.392,-0.082C0.417,-0.097 0.438,-0.118 0.453,-0.145C0.468,-0.172 0.475,-0.205 0.475,-0.242L0.475,-0.254C0.475,-0.29 0.468,-0.322 0.453,-0.349C0.438,-0.376 0.417,-0.398 0.392,-0.413C0.366,-0.428 0.337,-0.436 0.306,-0.436C0.275,-0.436 0.246,-0.428 0.221,-0.413C0.195,-0.398 0.174,-0.376 0.16,-0.349C0.145,-0.322 0.137,-0.29 0.137,-0.254L0.137,-0.242C0.137,-0.205 0.145,-0.172 0.16,-0.145C0.174,-0.118 0.195,-0.097 0.221,-0.082C0.246,-0.067 0.275,-0.06 0.306,-0.06Z" style="fill:rgb(0,0,255);fill-rule:nonzero;"/>
            </g>
            <g transform="matrix(300,0,0,300,1268.48,1264.55)">
                <path d="M0.142,0.2L0.142,0.128L0.437,0.128C0.455,0.128 0.464,0.118 0.464,0.098L0.464,-0.076L0.452,-0.076C0.436,-0.046 0.414,-0.024 0.387,-0.009C0.359,0.007 0.329,0.014 0.296,0.014C0.252,0.014 0.212,0.004 0.175,-0.016C0.138,-0.035 0.108,-0.064 0.086,-0.102C0.063,-0.14 0.052,-0.186 0.052,-0.24L0.052,-0.256C0.052,-0.31 0.063,-0.356 0.086,-0.394C0.109,-0.431 0.138,-0.46 0.175,-0.48C0.212,-0.5 0.251,-0.51 0.294,-0.51C0.33,-0.51 0.362,-0.502 0.389,-0.487C0.416,-0.471 0.437,-0.448 0.452,-0.418L0.464,-0.418L0.464,-0.496L0.542,-0.496L0.542,0.122C0.542,0.145 0.535,0.163 0.521,0.178C0.506,0.193 0.488,0.2 0.465,0.2L0.142,0.2ZM0.298,-0.06C0.329,-0.06 0.358,-0.068 0.383,-0.083C0.407,-0.097 0.427,-0.119 0.442,-0.146C0.457,-0.173 0.464,-0.205 0.464,-0.242L0.464,-0.254C0.464,-0.289 0.456,-0.321 0.442,-0.348C0.427,-0.375 0.407,-0.397 0.382,-0.413C0.357,-0.428 0.329,-0.436 0.298,-0.436C0.267,-0.436 0.239,-0.429 0.214,-0.414C0.189,-0.399 0.169,-0.378 0.154,-0.351C0.139,-0.324 0.132,-0.292 0.132,-0.256L0.132,-0.24C0.132,-0.203 0.139,-0.171 0.154,-0.145C0.168,-0.118 0.188,-0.097 0.213,-0.082C0.238,-0.067 0.266,-0.06 0.298,-0.06Z" style="fill:rgb(0,0,255);fill-rule:nonzero;"/>
            </g>
            <g transform="matrix(300,0,0,300,1452.08,1264.55)">
                <path d="M0.047,-0L0.047,-0.072L0.161,-0.072L0.161,-0.424L0.059,-0.424L0.059,-0.496L0.239,-0.496L0.239,-0.43L0.251,-0.43C0.264,-0.457 0.282,-0.478 0.306,-0.491C0.329,-0.503 0.356,-0.51 0.385,-0.51C0.434,-0.51 0.475,-0.494 0.506,-0.461C0.537,-0.428 0.553,-0.381 0.555,-0.318L0.473,-0.306C0.473,-0.352 0.462,-0.385 0.44,-0.406C0.418,-0.426 0.391,-0.436 0.359,-0.436C0.318,-0.436 0.288,-0.421 0.269,-0.392C0.249,-0.362 0.239,-0.325 0.239,-0.282L0.239,-0.072L0.365,-0.072L0.365,-0L0.047,-0Z" style="fill:rgb(0,0,255);fill-rule:nonzero;"/>
            </g>
            <g transform="matrix(300,0,0,300,1635.68,1264.55)">
                <path d="M0.279,0.014C0.236,0.014 0.197,0.004 0.162,-0.016C0.127,-0.035 0.099,-0.064 0.078,-0.102C0.057,-0.139 0.047,-0.185 0.047,-0.24L0.047,-0.256C0.047,-0.31 0.057,-0.356 0.078,-0.394C0.099,-0.432 0.127,-0.461 0.162,-0.481C0.197,-0.5 0.235,-0.51 0.277,-0.51C0.311,-0.51 0.342,-0.503 0.37,-0.488C0.397,-0.472 0.419,-0.449 0.435,-0.418L0.447,-0.418L0.447,-0.496L0.525,-0.496L0.525,-0.102C0.525,-0.082 0.534,-0.072 0.552,-0.072L0.577,-0.072L0.577,-0L0.524,-0C0.503,-0 0.485,-0.007 0.47,-0.02C0.455,-0.033 0.447,-0.055 0.447,-0.084L0.435,-0.084C0.419,-0.051 0.397,-0.027 0.369,-0.011C0.34,0.006 0.31,0.014 0.279,0.014ZM0.287,-0.06C0.334,-0.06 0.372,-0.077 0.402,-0.11C0.432,-0.143 0.447,-0.187 0.447,-0.242L0.447,-0.254C0.447,-0.289 0.44,-0.321 0.426,-0.348C0.412,-0.375 0.393,-0.397 0.369,-0.413C0.345,-0.428 0.318,-0.436 0.287,-0.436C0.256,-0.436 0.229,-0.429 0.205,-0.414C0.181,-0.399 0.162,-0.378 0.148,-0.351C0.134,-0.324 0.127,-0.292 0.127,-0.256L0.127,-0.24C0.127,-0.184 0.142,-0.14 0.172,-0.108C0.202,-0.076 0.24,-0.06 0.287,-0.06Z" style="fill:rgb(0,0,255);fill-rule:nonzero;"/>
            </g>
            <g transform="matrix(300,0,0,300,1819.28,1264.55)">
                <path d="M0.069,0.2L0.069,-0.496L0.147,-0.496L0.147,-0.418L0.159,-0.418C0.176,-0.448 0.2,-0.471 0.231,-0.487C0.262,-0.502 0.295,-0.51 0.331,-0.51C0.372,-0.51 0.409,-0.5 0.444,-0.481C0.479,-0.461 0.506,-0.432 0.528,-0.395C0.549,-0.357 0.559,-0.311 0.559,-0.258L0.559,-0.238C0.559,-0.184 0.549,-0.138 0.528,-0.101C0.507,-0.064 0.48,-0.035 0.445,-0.016C0.409,0.004 0.371,0.014 0.329,0.014C0.297,0.014 0.265,0.007 0.233,-0.009C0.201,-0.024 0.176,-0.046 0.159,-0.076L0.147,-0.076L0.147,0.2L0.069,0.2ZM0.313,-0.06C0.36,-0.06 0.4,-0.076 0.432,-0.108C0.463,-0.14 0.479,-0.183 0.479,-0.238L0.479,-0.258C0.479,-0.293 0.472,-0.324 0.457,-0.351C0.442,-0.378 0.423,-0.399 0.398,-0.414C0.373,-0.429 0.344,-0.436 0.313,-0.436C0.282,-0.436 0.255,-0.428 0.23,-0.413C0.205,-0.397 0.185,-0.375 0.17,-0.348C0.155,-0.321 0.147,-0.289 0.147,-0.254L0.147,-0.242C0.147,-0.205 0.154,-0.173 0.169,-0.146C0.184,-0.119 0.204,-0.097 0.229,-0.083C0.254,-0.068 0.282,-0.06 0.313,-0.06Z" style="fill:rgb(0,0,255);fill-rule:nonzero;"/>
            </g>
            <g transform="matrix(300,0,0,300,2002.88,1264.55)">
                <path d="M0.087,-0L0.087,-0.7L0.165,-0.7L0.165,-0.406L0.177,-0.406C0.192,-0.438 0.214,-0.463 0.242,-0.482C0.269,-0.501 0.303,-0.51 0.343,-0.51C0.397,-0.51 0.441,-0.492 0.475,-0.457C0.508,-0.421 0.525,-0.367 0.525,-0.296L0.525,-0L0.447,-0L0.447,-0.28C0.447,-0.332 0.435,-0.371 0.412,-0.397C0.389,-0.423 0.357,-0.436 0.317,-0.436C0.27,-0.436 0.233,-0.42 0.206,-0.388C0.179,-0.355 0.165,-0.312 0.165,-0.258L0.165,-0L0.087,-0Z" style="fill:rgb(0,0,255);fill-rule:nonzero;"/>
            </g>
            <g transform="matrix(300,0,0,300,2186.48,1264.55)">
                <path d="M0.165,0.2L0.165,0.128L0.42,0.128C0.438,0.128 0.447,0.118 0.447,0.098L0.447,-0.09L0.435,-0.09C0.419,-0.058 0.398,-0.033 0.372,-0.014C0.346,0.005 0.313,0.014 0.273,0.014C0.218,0.014 0.174,-0.004 0.139,-0.04C0.104,-0.076 0.087,-0.129 0.087,-0.2L0.087,-0.496L0.165,-0.496L0.165,-0.21C0.165,-0.158 0.176,-0.12 0.197,-0.096C0.218,-0.072 0.251,-0.06 0.295,-0.06C0.342,-0.06 0.38,-0.076 0.407,-0.109C0.434,-0.141 0.447,-0.184 0.447,-0.238L0.447,-0.496L0.525,-0.496L0.525,0.122C0.525,0.145 0.518,0.163 0.504,0.178C0.489,0.193 0.471,0.2 0.448,0.2L0.165,0.2Z" style="fill:rgb(0,0,255);fill-rule:nonzero;"/>
            </g>
        </g>
    </g>
</svg>
